<svg width="20" height="14" viewBox="0 0 20 14" fill="none" xmlns="http://www.w3.org/2000/svg">
<path d="M4.37701 13.3419C3.69301 13.3419 3.00901 13.2399 2.32501 13.0359C1.65301 12.8319 1.04101 12.5139 0.489008 12.0819C0.345008 11.9859 0.249008 11.8719 0.201008 11.7399C0.153008 11.6079 0.147008 11.4759 0.183008 11.3439C0.219008 11.2119 0.285008 11.1039 0.381008 11.0199C0.477008 10.9239 0.591008 10.8699 0.723008 10.8579C0.867008 10.8459 1.01701 10.8939 1.17301 11.0019C1.66501 11.3499 2.17501 11.6079 2.70301 11.7759C3.23101 11.9439 3.78301 12.0279 4.35901 12.0279C4.94701 12.0279 5.45101 11.9199 5.87101 11.7039C6.30301 11.4759 6.62701 11.1639 6.84301 10.7679C7.07101 10.3599 7.18501 9.88593 7.18501 9.34593C7.18501 8.51793 6.94501 7.83993 6.46501 7.31193C5.98501 6.78393 5.32501 6.51993 4.48501 6.51993C3.96901 6.51993 3.49501 6.61593 3.06301 6.80793C2.63101 6.99993 2.23501 7.30593 1.87501 7.72593C1.79101 7.82193 1.68901 7.90593 1.56901 7.97793C1.46101 8.03793 1.33501 8.06793 1.19101 8.06793C0.987008 8.06793 0.825008 8.01393 0.705008 7.90593C0.597008 7.78593 0.543008 7.62993 0.543008 7.43793V1.17393C0.543008 0.94593 0.603008 0.77793 0.723008 0.66993C0.843008 0.549931 1.01101 0.489931 1.22701 0.489931H7.34701C7.57501 0.489931 7.74301 0.543931 7.85101 0.651931C7.97101 0.759931 8.03101 0.915931 8.03101 1.11993C8.03101 1.32393 7.97101 1.47993 7.85101 1.58793C7.74301 1.69593 7.57501 1.74993 7.34701 1.74993H2.00101V6.80793H1.60501C1.91701 6.30393 2.34901 5.91993 2.90101 5.65593C3.45301 5.37993 4.07101 5.24193 4.75501 5.24193C5.55901 5.24193 6.24901 5.40993 6.82501 5.74593C7.41301 6.08193 7.86301 6.55593 8.17501 7.16793C8.49901 7.76793 8.66101 8.46993 8.66101 9.27393C8.66101 10.0659 8.48701 10.7679 8.13901 11.3799C7.79101 11.9919 7.29901 12.4719 6.66301 12.8199C6.02701 13.1679 5.26501 13.3419 4.37701 13.3419ZM17.024 13.3059C16.796 13.3059 16.616 13.2399 16.484 13.1079C16.352 12.9759 16.286 12.7899 16.286 12.5499V10.4619H11.12C10.88 10.4619 10.688 10.4079 10.544 10.2999C10.412 10.1799 10.346 10.0119 10.346 9.79593C10.346 9.66393 10.376 9.53193 10.436 9.39993C10.496 9.25593 10.604 9.07593 10.76 8.85993L16.25 0.867931C16.358 0.699931 16.478 0.573931 16.61 0.489931C16.742 0.405931 16.898 0.363931 17.078 0.363931C17.27 0.363931 17.432 0.423931 17.564 0.543931C17.708 0.663931 17.78 0.855931 17.78 1.11993V9.20193H19.094C19.322 9.20193 19.496 9.25593 19.616 9.36393C19.736 9.47193 19.796 9.62793 19.796 9.83193C19.796 10.0359 19.736 10.1919 19.616 10.2999C19.496 10.4079 19.322 10.4619 19.094 10.4619H17.78V12.5499C17.78 12.7899 17.714 12.9759 17.582 13.1079C17.45 13.2399 17.264 13.3059 17.024 13.3059ZM16.286 9.20193V2.21793H16.718L11.678 9.59793V9.20193H16.286Z" fill="white"/>
</svg>
