<svg width="376" height="841" viewBox="0 0 376 841" fill="none" xmlns="http://www.w3.org/2000/svg">
<rect width="376" height="841" rx="40" fill="#1B1926"/>
<path d="M119.812 61C119.695 61 119.609 60.968 119.556 60.904C119.503 60.8293 119.481 60.7333 119.492 60.616L121.188 49.944C121.209 49.8267 121.247 49.7467 121.3 49.704C121.364 49.6507 121.449 49.624 121.556 49.624C121.673 49.624 121.753 49.6613 121.796 49.736C121.849 49.8 121.865 49.8907 121.844 50.008L120.212 60.376H125.924C126.031 60.376 126.111 60.3973 126.164 60.44C126.228 60.472 126.26 60.5307 126.26 60.616C126.26 60.7547 126.223 60.856 126.148 60.92C126.073 60.9733 125.988 61 125.892 61H119.812ZM128.544 52.216C128.459 52.3013 128.374 52.344 128.288 52.344C128.214 52.344 128.15 52.3227 128.096 52.28C128.054 52.2267 128.032 52.1573 128.032 52.072C128.043 51.9867 128.086 51.9013 128.16 51.816C128.331 51.6347 128.459 51.464 128.544 51.304C128.63 51.1333 128.688 50.9467 128.72 50.744L128.8 50.888C128.608 50.888 128.454 50.8293 128.336 50.712C128.219 50.5947 128.16 50.4507 128.16 50.28C128.16 50.0987 128.214 49.9547 128.32 49.848C128.427 49.7307 128.566 49.672 128.736 49.672C128.918 49.672 129.056 49.736 129.152 49.864C129.259 49.9813 129.312 50.1573 129.312 50.392C129.312 50.616 129.28 50.84 129.216 51.064C129.152 51.288 129.062 51.5013 128.944 51.704C128.827 51.896 128.694 52.0667 128.544 52.216ZM132.639 61.128C132.213 61.128 131.807 61.0373 131.423 60.856C131.039 60.664 130.73 60.3973 130.495 60.056C130.261 59.7147 130.143 59.3147 130.143 58.856C130.143 58.312 130.293 57.8747 130.591 57.544C130.901 57.2133 131.381 56.9733 132.031 56.824C132.682 56.6747 133.519 56.6 134.543 56.6H135.839L135.743 57.192H134.799C133.807 57.192 133.029 57.2453 132.463 57.352C131.898 57.448 131.493 57.6187 131.247 57.864C131.013 58.0987 130.895 58.4187 130.895 58.824C130.895 59.3787 131.077 59.8 131.439 60.088C131.813 60.376 132.229 60.52 132.687 60.52C133.114 60.52 133.519 60.4187 133.903 60.216C134.298 60.0133 134.634 59.72 134.911 59.336C135.189 58.952 135.37 58.488 135.455 57.944L135.775 55.96C135.893 55.2347 135.807 54.6853 135.519 54.312C135.242 53.9387 134.73 53.752 133.983 53.752C133.557 53.752 133.151 53.7947 132.767 53.88C132.394 53.9653 132.037 54.1307 131.695 54.376C131.61 54.44 131.525 54.472 131.439 54.472C131.365 54.472 131.301 54.4507 131.247 54.408C131.194 54.3653 131.162 54.312 131.151 54.248C131.141 54.184 131.151 54.1147 131.183 54.04C131.215 53.9653 131.279 53.896 131.375 53.832C131.749 53.5867 132.165 53.4107 132.623 53.304C133.082 53.1867 133.546 53.128 134.015 53.128C134.645 53.128 135.151 53.2507 135.535 53.496C135.93 53.7307 136.202 54.0773 136.351 54.536C136.501 54.984 136.522 55.528 136.415 56.168L135.679 60.76C135.669 60.8667 135.631 60.9467 135.567 61C135.503 61.064 135.418 61.096 135.311 61.096C135.205 61.096 135.13 61.0587 135.087 60.984C135.045 60.9093 135.029 60.8133 135.039 60.696L135.279 59.144H135.439C135.301 59.592 135.082 59.9653 134.783 60.264C134.495 60.552 134.159 60.7707 133.775 60.92C133.402 61.0587 133.023 61.128 132.639 61.128ZM138.186 63.976C138.079 63.976 137.999 63.9387 137.946 63.864C137.903 63.8 137.893 63.704 137.914 63.576L139.514 53.496C139.535 53.3787 139.578 53.2933 139.642 53.24C139.706 53.1867 139.791 53.16 139.898 53.16C140.005 53.16 140.079 53.1973 140.122 53.272C140.175 53.336 140.191 53.432 140.17 53.56L139.93 55.064H139.754C140.031 54.4667 140.431 53.9973 140.954 53.656C141.477 53.304 142.095 53.128 142.81 53.128C143.418 53.128 143.951 53.2613 144.41 53.528C144.869 53.7947 145.221 54.1733 145.466 54.664C145.722 55.1547 145.85 55.7413 145.85 56.424C145.85 57.256 145.701 58.0293 145.402 58.744C145.114 59.4587 144.682 60.0347 144.106 60.472C143.53 60.9093 142.821 61.128 141.978 61.128C141.327 61.128 140.746 60.9627 140.234 60.632C139.722 60.2907 139.375 59.7627 139.194 59.048H139.306L138.57 63.64C138.559 63.7467 138.522 63.8267 138.458 63.88C138.394 63.944 138.303 63.976 138.186 63.976ZM142.01 60.504C142.693 60.504 143.269 60.3173 143.738 59.944C144.207 59.5707 144.559 59.0747 144.794 58.456C145.039 57.8373 145.162 57.16 145.162 56.424C145.162 55.5387 144.943 54.872 144.506 54.424C144.079 53.976 143.482 53.752 142.714 53.752C142.031 53.752 141.455 53.9387 140.986 54.312C140.517 54.6853 140.159 55.1813 139.914 55.8C139.679 56.408 139.562 57.0853 139.562 57.832C139.562 58.7067 139.775 59.3733 140.202 59.832C140.639 60.28 141.242 60.504 142.01 60.504ZM147.28 63.976C147.173 63.976 147.093 63.9387 147.04 63.864C146.997 63.8 146.987 63.704 147.008 63.576L148.608 53.496C148.629 53.3787 148.672 53.2933 148.736 53.24C148.8 53.1867 148.885 53.16 148.992 53.16C149.099 53.16 149.173 53.1973 149.216 53.272C149.269 53.336 149.285 53.432 149.264 53.56L149.024 55.064H148.848C149.125 54.4667 149.525 53.9973 150.048 53.656C150.571 53.304 151.189 53.128 151.904 53.128C152.512 53.128 153.045 53.2613 153.504 53.528C153.963 53.7947 154.315 54.1733 154.56 54.664C154.816 55.1547 154.944 55.7413 154.944 56.424C154.944 57.256 154.795 58.0293 154.496 58.744C154.208 59.4587 153.776 60.0347 153.2 60.472C152.624 60.9093 151.915 61.128 151.072 61.128C150.421 61.128 149.84 60.9627 149.328 60.632C148.816 60.2907 148.469 59.7627 148.288 59.048H148.4L147.664 63.64C147.653 63.7467 147.616 63.8267 147.552 63.88C147.488 63.944 147.397 63.976 147.28 63.976ZM151.104 60.504C151.787 60.504 152.363 60.3173 152.832 59.944C153.301 59.5707 153.653 59.0747 153.888 58.456C154.133 57.8373 154.256 57.16 154.256 56.424C154.256 55.5387 154.037 54.872 153.6 54.424C153.173 53.976 152.576 53.752 151.808 53.752C151.125 53.752 150.549 53.9387 150.08 54.312C149.611 54.6853 149.253 55.1813 149.008 55.8C148.773 56.408 148.656 57.0853 148.656 57.832C148.656 58.7067 148.869 59.3733 149.296 59.832C149.733 60.28 150.336 60.504 151.104 60.504ZM158.598 61.128C157.936 61.128 157.451 60.9253 157.142 60.52C156.832 60.1147 156.742 59.512 156.87 58.712L158.262 49.96C158.283 49.8427 158.326 49.7573 158.39 49.704C158.454 49.6507 158.539 49.624 158.646 49.624C158.752 49.624 158.827 49.6613 158.87 49.736C158.923 49.8 158.939 49.896 158.918 50.024L157.542 58.712C157.435 59.3627 157.478 59.8267 157.67 60.104C157.872 60.3707 158.224 60.504 158.726 60.504C158.896 60.504 159.024 60.4933 159.11 60.472C159.206 60.4507 159.275 60.44 159.318 60.44C159.371 60.44 159.414 60.456 159.446 60.488C159.478 60.52 159.494 60.584 159.494 60.68C159.494 60.7867 159.456 60.8773 159.382 60.952C159.318 61.016 159.227 61.0587 159.11 61.08C159.035 61.0907 158.944 61.1013 158.838 61.112C158.742 61.1227 158.662 61.128 158.598 61.128ZM161.244 61.096C161.137 61.096 161.057 61.064 161.004 61C160.961 60.9253 160.951 60.824 160.972 60.696L162.108 53.496C162.129 53.3787 162.172 53.2933 162.236 53.24C162.3 53.1867 162.385 53.16 162.492 53.16C162.599 53.16 162.673 53.1973 162.716 53.272C162.769 53.336 162.785 53.432 162.764 53.56L161.628 60.76C161.617 60.8667 161.58 60.9467 161.516 61C161.452 61.064 161.361 61.096 161.244 61.096ZM162.844 51.144C162.695 51.144 162.577 51.1067 162.492 51.032C162.407 50.9467 162.364 50.8347 162.364 50.696C162.364 50.4827 162.423 50.3227 162.54 50.216C162.657 50.0987 162.817 50.04 163.02 50.04C163.169 50.04 163.287 50.0773 163.372 50.152C163.457 50.2267 163.5 50.3387 163.5 50.488C163.5 50.6907 163.441 50.8507 163.324 50.968C163.207 51.0853 163.047 51.144 162.844 51.144ZM171.356 61.128C170.748 61.128 170.215 60.9947 169.756 60.728C169.308 60.4613 168.956 60.0827 168.7 59.592C168.444 59.0907 168.316 58.504 168.316 57.832C168.316 57 168.46 56.2267 168.748 55.512C169.047 54.7973 169.484 54.2213 170.06 53.784C170.636 53.3467 171.345 53.128 172.188 53.128C172.839 53.128 173.42 53.2987 173.932 53.64C174.444 53.9707 174.791 54.4933 174.972 55.208H174.86L175.692 49.96C175.713 49.8427 175.756 49.7573 175.82 49.704C175.884 49.6507 175.969 49.624 176.076 49.624C176.183 49.624 176.257 49.6613 176.3 49.736C176.353 49.8 176.369 49.896 176.348 50.024L174.652 60.76C174.641 60.8667 174.604 60.9467 174.54 61C174.476 61.064 174.385 61.096 174.268 61.096C174.161 61.096 174.081 61.064 174.028 61C173.985 60.9253 173.975 60.824 173.996 60.696L174.236 59.192H174.412C174.145 59.7787 173.751 60.248 173.228 60.6C172.705 60.952 172.081 61.128 171.356 61.128ZM171.452 60.504C172.135 60.504 172.711 60.3173 173.18 59.944C173.649 59.5707 174.001 59.0747 174.236 58.456C174.481 57.8373 174.604 57.16 174.604 56.424C174.604 55.5387 174.385 54.872 173.948 54.424C173.521 53.976 172.924 53.752 172.156 53.752C171.473 53.752 170.897 53.9387 170.428 54.312C169.959 54.6853 169.601 55.1813 169.356 55.8C169.121 56.408 169.004 57.0853 169.004 57.832C169.004 58.7067 169.217 59.3733 169.644 59.832C170.081 60.28 170.684 60.504 171.452 60.504ZM180.77 61.128C180.076 61.128 179.474 60.9947 178.962 60.728C178.46 60.4613 178.076 60.0827 177.81 59.592C177.543 59.0907 177.41 58.4933 177.41 57.8C177.41 56.9787 177.564 56.216 177.874 55.512C178.183 54.7973 178.636 54.2213 179.234 53.784C179.831 53.3467 180.556 53.128 181.41 53.128C181.986 53.128 182.466 53.2347 182.85 53.448C183.244 53.6507 183.554 53.928 183.778 54.28C184.012 54.632 184.162 55.032 184.226 55.48C184.3 55.928 184.306 56.3867 184.242 56.856C184.22 57.0053 184.183 57.112 184.13 57.176C184.076 57.2293 183.98 57.256 183.842 57.256H177.874L177.97 56.664H183.922L183.618 56.856C183.703 56.28 183.682 55.7573 183.554 55.288C183.436 54.8187 183.202 54.4453 182.85 54.168C182.508 53.88 182.023 53.736 181.394 53.736C180.722 53.736 180.162 53.8907 179.714 54.2C179.276 54.4987 178.935 54.8827 178.69 55.352C178.444 55.8107 178.279 56.2853 178.194 56.776L178.146 57.064C177.975 58.088 178.119 58.92 178.578 59.56C179.047 60.1893 179.767 60.504 180.738 60.504C181.186 60.504 181.596 60.4507 181.97 60.344C182.343 60.2267 182.711 60.0347 183.074 59.768C183.17 59.6933 183.255 59.656 183.33 59.656C183.404 59.6453 183.468 59.6613 183.522 59.704C183.575 59.736 183.607 59.784 183.618 59.848C183.639 59.912 183.634 59.9867 183.602 60.072C183.57 60.1467 183.511 60.216 183.426 60.28C183.074 60.5467 182.658 60.7547 182.178 60.904C181.708 61.0533 181.239 61.128 180.77 61.128ZM192.426 61.128C191.904 61.128 191.472 61.0267 191.13 60.824C190.789 60.6107 190.549 60.312 190.41 59.928C190.272 59.544 190.245 59.0853 190.33 58.552L191.082 53.832H189.834C189.728 53.832 189.642 53.8107 189.578 53.768C189.514 53.7253 189.482 53.6667 189.482 53.592C189.482 53.4747 189.52 53.3893 189.594 53.336C189.669 53.2827 189.76 53.256 189.866 53.256H191.162L191.514 51.08C191.536 50.9627 191.578 50.8773 191.642 50.824C191.706 50.7707 191.792 50.744 191.898 50.744C192.005 50.744 192.08 50.7813 192.122 50.856C192.176 50.92 192.192 51.016 192.17 51.144L191.834 53.256H194.074C194.192 53.256 194.277 53.2773 194.33 53.32C194.394 53.352 194.426 53.4107 194.426 53.496C194.426 53.6027 194.389 53.688 194.314 53.752C194.25 53.8053 194.16 53.832 194.042 53.832H191.738L191.018 58.408C190.901 59.1547 190.965 59.6933 191.21 60.024C191.466 60.344 191.888 60.504 192.474 60.504C192.73 60.504 192.928 60.4827 193.066 60.44C193.205 60.3867 193.312 60.36 193.386 60.36C193.45 60.36 193.498 60.3813 193.53 60.424C193.573 60.456 193.594 60.5147 193.594 60.6C193.594 60.696 193.578 60.776 193.546 60.84C193.525 60.8933 193.472 60.936 193.386 60.968C193.28 61.0107 193.13 61.048 192.938 61.08C192.757 61.112 192.586 61.128 192.426 61.128ZM198.129 61.128C197.436 61.128 196.833 60.9947 196.321 60.728C195.82 60.4613 195.436 60.0827 195.169 59.592C194.902 59.0907 194.769 58.4933 194.769 57.8C194.769 56.9787 194.924 56.216 195.233 55.512C195.542 54.7973 195.996 54.2213 196.593 53.784C197.19 53.3467 197.916 53.128 198.769 53.128C199.345 53.128 199.825 53.2347 200.209 53.448C200.604 53.6507 200.913 53.928 201.137 54.28C201.372 54.632 201.521 55.032 201.585 55.48C201.66 55.928 201.665 56.3867 201.601 56.856C201.58 57.0053 201.542 57.112 201.489 57.176C201.436 57.2293 201.34 57.256 201.201 57.256H195.233L195.329 56.664H201.281L200.977 56.856C201.062 56.28 201.041 55.7573 200.913 55.288C200.796 54.8187 200.561 54.4453 200.209 54.168C199.868 53.88 199.382 53.736 198.753 53.736C198.081 53.736 197.521 53.8907 197.073 54.2C196.636 54.4987 196.294 54.8827 196.049 55.352C195.804 55.8107 195.638 56.2853 195.553 56.776L195.505 57.064C195.334 58.088 195.478 58.92 195.937 59.56C196.406 60.1893 197.126 60.504 198.097 60.504C198.545 60.504 198.956 60.4507 199.329 60.344C199.702 60.2267 200.07 60.0347 200.433 59.768C200.529 59.6933 200.614 59.656 200.689 59.656C200.764 59.6453 200.828 59.6613 200.881 59.704C200.934 59.736 200.966 59.784 200.977 59.848C200.998 59.912 200.993 59.9867 200.961 60.072C200.929 60.1467 200.87 60.216 200.785 60.28C200.433 60.5467 200.017 60.7547 199.537 60.904C199.068 61.0533 198.598 61.128 198.129 61.128ZM205.848 61.128C205.325 61.128 204.835 61.0587 204.376 60.92C203.928 60.7813 203.544 60.5947 203.224 60.36C203.149 60.3067 203.101 60.2427 203.08 60.168C203.059 60.0933 203.053 60.024 203.064 59.96C203.085 59.896 203.123 59.8427 203.176 59.8C203.229 59.7573 203.293 59.7413 203.368 59.752C203.443 59.752 203.528 59.784 203.624 59.848C203.955 60.0827 204.307 60.2533 204.68 60.36C205.064 60.456 205.469 60.504 205.896 60.504C206.536 60.504 207.043 60.3707 207.416 60.104C207.8 59.8373 207.992 59.4533 207.992 58.952C207.992 58.632 207.885 58.3653 207.672 58.152C207.469 57.9387 207.181 57.784 206.808 57.688L205.256 57.272C204.776 57.144 204.392 56.9147 204.104 56.584C203.816 56.2533 203.672 55.8587 203.672 55.4C203.672 54.952 203.795 54.5573 204.04 54.216C204.285 53.8747 204.627 53.608 205.064 53.416C205.501 53.224 206.003 53.128 206.568 53.128C207.037 53.128 207.485 53.2027 207.912 53.352C208.339 53.5013 208.685 53.6987 208.952 53.944C209.027 54.0187 209.075 54.0933 209.096 54.168C209.128 54.2427 209.133 54.312 209.112 54.376C209.091 54.44 209.053 54.488 209 54.52C208.947 54.552 208.883 54.568 208.808 54.568C208.744 54.5573 208.669 54.5147 208.584 54.44C208.317 54.2053 208.013 54.0347 207.672 53.928C207.331 53.8107 206.957 53.752 206.552 53.752C205.901 53.752 205.373 53.9013 204.968 54.2C204.573 54.488 204.376 54.8827 204.376 55.384C204.376 55.6933 204.467 55.96 204.648 56.184C204.84 56.408 205.128 56.5733 205.512 56.68L207.064 57.096C207.565 57.2347 207.96 57.4533 208.248 57.752C208.547 58.0507 208.696 58.4347 208.696 58.904C208.696 59.5867 208.435 60.1307 207.912 60.536C207.389 60.9307 206.701 61.128 205.848 61.128ZM214.947 61.096C214.841 61.096 214.761 61.064 214.707 61C214.665 60.9253 214.654 60.824 214.675 60.696L215.811 53.496C215.833 53.3787 215.875 53.2933 215.939 53.24C216.003 53.1867 216.089 53.16 216.195 53.16C216.291 53.16 216.366 53.1973 216.419 53.272C216.473 53.336 216.489 53.432 216.467 53.56L216.227 55.08H216.051C216.275 54.44 216.665 53.9493 217.219 53.608C217.785 53.2667 218.393 53.096 219.043 53.096C219.225 53.096 219.347 53.1173 219.411 53.16C219.486 53.192 219.523 53.2613 219.523 53.368C219.523 53.4747 219.497 53.5547 219.443 53.608C219.39 53.6507 219.289 53.6827 219.139 53.704L218.947 53.72C217.977 53.7947 217.273 54.0827 216.835 54.584C216.409 55.0853 216.131 55.7307 216.003 56.52L215.331 60.76C215.321 60.8667 215.283 60.9467 215.219 61C215.155 61.064 215.065 61.096 214.947 61.096ZM223.192 61.128C222.498 61.128 221.896 60.9947 221.384 60.728C220.882 60.4613 220.498 60.0827 220.232 59.592C219.965 59.0907 219.832 58.4933 219.832 57.8C219.832 56.9787 219.986 56.216 220.296 55.512C220.605 54.7973 221.058 54.2213 221.656 53.784C222.253 53.3467 222.978 53.128 223.832 53.128C224.408 53.128 224.888 53.2347 225.272 53.448C225.666 53.6507 225.976 53.928 226.2 54.28C226.434 54.632 226.584 55.032 226.648 55.48C226.722 55.928 226.728 56.3867 226.664 56.856C226.642 57.0053 226.605 57.112 226.552 57.176C226.498 57.2293 226.402 57.256 226.264 57.256H220.296L220.392 56.664H226.344L226.04 56.856C226.125 56.28 226.104 55.7573 225.976 55.288C225.858 54.8187 225.624 54.4453 225.272 54.168C224.93 53.88 224.445 53.736 223.816 53.736C223.144 53.736 222.584 53.8907 222.136 54.2C221.698 54.4987 221.357 54.8827 221.112 55.352C220.866 55.8107 220.701 56.2853 220.616 56.776L220.568 57.064C220.397 58.088 220.541 58.92 221 59.56C221.469 60.1893 222.189 60.504 223.16 60.504C223.608 60.504 224.018 60.4507 224.392 60.344C224.765 60.2267 225.133 60.0347 225.496 59.768C225.592 59.6933 225.677 59.656 225.752 59.656C225.826 59.6453 225.89 59.6613 225.944 59.704C225.997 59.736 226.029 59.784 226.04 59.848C226.061 59.912 226.056 59.9867 226.024 60.072C225.992 60.1467 225.933 60.216 225.848 60.28C225.496 60.5467 225.08 60.7547 224.6 60.904C224.13 61.0533 223.661 61.128 223.192 61.128ZM226.056 51.96C226.088 52.0453 226.088 52.1147 226.056 52.168C226.034 52.2213 225.992 52.2587 225.928 52.28C225.864 52.3013 225.8 52.3013 225.736 52.28C225.672 52.2587 225.624 52.216 225.592 52.152L224.36 49.64L222.52 52.168C222.466 52.232 222.402 52.2747 222.328 52.296C222.264 52.3173 222.205 52.3173 222.152 52.296C222.098 52.264 222.061 52.216 222.04 52.152C222.029 52.088 222.05 52.0133 222.104 51.928L223.912 49.16C223.997 49.0427 224.077 48.968 224.152 48.936C224.237 48.8933 224.328 48.872 224.424 48.872C224.52 48.872 224.6 48.8933 224.664 48.936C224.738 48.9787 224.797 49.0533 224.84 49.16L226.056 51.96ZM230.72 61.096C230.592 61.096 230.491 61.064 230.416 61C230.352 60.9253 230.299 60.8187 230.256 60.68L228.384 53.688C228.363 53.5813 228.358 53.4907 228.368 53.416C228.39 53.3413 228.427 53.2827 228.48 53.24C228.544 53.1867 228.624 53.16 228.72 53.16C228.816 53.16 228.886 53.1867 228.928 53.24C228.982 53.2827 229.024 53.3627 229.056 53.48L230.912 60.76H230.528L234.752 53.416C234.806 53.3307 234.859 53.2667 234.912 53.224C234.966 53.1813 235.035 53.16 235.12 53.16C235.216 53.16 235.291 53.1867 235.344 53.24C235.408 53.2933 235.44 53.3627 235.44 53.448C235.451 53.5227 235.424 53.6133 235.36 53.72L231.248 60.76C231.184 60.8667 231.115 60.9467 231.04 61C230.966 61.064 230.859 61.096 230.72 61.096ZM239.473 61.128C238.78 61.128 238.177 60.9947 237.665 60.728C237.164 60.4613 236.78 60.0827 236.513 59.592C236.246 59.0907 236.113 58.4933 236.113 57.8C236.113 56.9787 236.268 56.216 236.577 55.512C236.886 54.7973 237.34 54.2213 237.937 53.784C238.534 53.3467 239.26 53.128 240.113 53.128C240.689 53.128 241.169 53.2347 241.553 53.448C241.948 53.6507 242.257 53.928 242.481 54.28C242.716 54.632 242.865 55.032 242.929 55.48C243.004 55.928 243.009 56.3867 242.945 56.856C242.924 57.0053 242.886 57.112 242.833 57.176C242.78 57.2293 242.684 57.256 242.545 57.256H236.577L236.673 56.664H242.625L242.321 56.856C242.406 56.28 242.385 55.7573 242.257 55.288C242.14 54.8187 241.905 54.4453 241.553 54.168C241.212 53.88 240.726 53.736 240.097 53.736C239.425 53.736 238.865 53.8907 238.417 54.2C237.98 54.4987 237.638 54.8827 237.393 55.352C237.148 55.8107 236.982 56.2853 236.897 56.776L236.849 57.064C236.678 58.088 236.822 58.92 237.281 59.56C237.75 60.1893 238.47 60.504 239.441 60.504C239.889 60.504 240.3 60.4507 240.673 60.344C241.046 60.2267 241.414 60.0347 241.777 59.768C241.873 59.6933 241.958 59.656 242.033 59.656C242.108 59.6453 242.172 59.6613 242.225 59.704C242.278 59.736 242.31 59.784 242.321 59.848C242.342 59.912 242.337 59.9867 242.305 60.072C242.273 60.1467 242.214 60.216 242.129 60.28C241.777 60.5467 241.361 60.7547 240.881 60.904C240.412 61.0533 239.942 61.128 239.473 61.128ZM247.192 61.128C246.669 61.128 246.179 61.0587 245.72 60.92C245.272 60.7813 244.888 60.5947 244.568 60.36C244.493 60.3067 244.445 60.2427 244.424 60.168C244.403 60.0933 244.397 60.024 244.408 59.96C244.429 59.896 244.467 59.8427 244.52 59.8C244.573 59.7573 244.637 59.7413 244.712 59.752C244.787 59.752 244.872 59.784 244.968 59.848C245.299 60.0827 245.651 60.2533 246.024 60.36C246.408 60.456 246.813 60.504 247.24 60.504C247.88 60.504 248.387 60.3707 248.76 60.104C249.144 59.8373 249.336 59.4533 249.336 58.952C249.336 58.632 249.229 58.3653 249.016 58.152C248.813 57.9387 248.525 57.784 248.152 57.688L246.6 57.272C246.12 57.144 245.736 56.9147 245.448 56.584C245.16 56.2533 245.016 55.8587 245.016 55.4C245.016 54.952 245.139 54.5573 245.384 54.216C245.629 53.8747 245.971 53.608 246.408 53.416C246.845 53.224 247.347 53.128 247.912 53.128C248.381 53.128 248.829 53.2027 249.256 53.352C249.683 53.5013 250.029 53.6987 250.296 53.944C250.371 54.0187 250.419 54.0933 250.44 54.168C250.472 54.2427 250.477 54.312 250.456 54.376C250.435 54.44 250.397 54.488 250.344 54.52C250.291 54.552 250.227 54.568 250.152 54.568C250.088 54.5573 250.013 54.5147 249.928 54.44C249.661 54.2053 249.357 54.0347 249.016 53.928C248.675 53.8107 248.301 53.752 247.896 53.752C247.245 53.752 246.717 53.9013 246.312 54.2C245.917 54.488 245.72 54.8827 245.72 55.384C245.72 55.6933 245.811 55.96 245.992 56.184C246.184 56.408 246.472 56.5733 246.856 56.68L248.408 57.096C248.909 57.2347 249.304 57.4533 249.592 57.752C249.891 58.0507 250.04 58.4347 250.04 58.904C250.04 59.5867 249.779 60.1307 249.256 60.536C248.733 60.9307 248.045 61.128 247.192 61.128Z" fill="white"/>
<rect x="1" y="711" width="375" height="101" fill="#1B1926"/>
<rect x="121" y="799" width="134" height="5" rx="2.5" fill="white"/>
<g filter="url(#filter0_d_2_14)">
<rect width="376" height="83" transform="translate(0 709)" fill="#1B1926"/>
<rect width="93.75" height="49" transform="translate(281.75 709)" fill="#1B1926"/>
<path d="M299.252 753V746H300.582L302.522 750.43L304.432 746H305.792V753H304.842V747.21L302.972 751.42H302.032L300.152 747.21V753H299.252ZM309.802 753.12C309.309 753.12 308.865 753.007 308.472 752.78C308.079 752.547 307.769 752.227 307.542 751.82C307.322 751.407 307.212 750.933 307.212 750.4C307.212 749.84 307.325 749.357 307.552 748.95C307.779 748.543 308.089 748.23 308.482 748.01C308.875 747.79 309.315 747.68 309.802 747.68C310.289 747.68 310.725 747.79 311.112 748.01C311.505 748.23 311.815 748.543 312.042 748.95C312.275 749.35 312.392 749.827 312.392 750.38C312.392 750.933 312.279 751.417 312.052 751.83C311.825 752.237 311.515 752.553 311.122 752.78C310.735 753.007 310.295 753.12 309.802 753.12ZM309.802 752.32C310.329 752.32 310.739 752.143 311.032 751.79C311.325 751.43 311.472 750.967 311.472 750.4C311.472 750.053 311.399 749.737 311.252 749.45C311.105 749.157 310.905 748.923 310.652 748.75C310.405 748.57 310.122 748.48 309.802 748.48C309.275 748.48 308.865 748.653 308.572 749C308.279 749.347 308.132 749.807 308.132 750.38C308.132 750.727 308.205 751.05 308.352 751.35C308.499 751.643 308.695 751.88 308.942 752.06C309.195 752.233 309.482 752.32 309.802 752.32ZM313.709 753V747.8H314.579V748.67C314.765 748.39 315.002 748.157 315.289 747.97C315.582 747.777 315.929 747.68 316.329 747.68C316.915 747.68 317.352 747.857 317.639 748.21C317.932 748.563 318.079 749.03 318.079 749.61V753H317.179V749.71C317.179 749.337 317.089 749.037 316.909 748.81C316.735 748.583 316.492 748.47 316.179 748.47C315.872 748.47 315.582 748.58 315.309 748.8C315.035 749.013 314.802 749.267 314.609 749.56V753H313.709ZM325.655 753.12C325.048 753.12 324.511 752.977 324.045 752.69C323.578 752.397 323.215 751.983 322.955 751.45C322.695 750.91 322.565 750.27 322.565 749.53C322.565 748.817 322.695 748.187 322.955 747.64C323.221 747.087 323.595 746.657 324.075 746.35C324.561 746.037 325.128 745.88 325.775 745.88C326.108 745.88 326.411 745.913 326.685 745.98C326.958 746.04 327.215 746.127 327.455 746.24L327.165 747.04C326.958 746.94 326.745 746.86 326.525 746.8C326.311 746.74 326.058 746.71 325.765 746.71C325.338 746.71 324.955 746.82 324.615 747.04C324.281 747.26 324.018 747.577 323.825 747.99C323.631 748.403 323.535 748.903 323.535 749.49C323.535 750.05 323.628 750.54 323.815 750.96C324.008 751.38 324.271 751.707 324.605 751.94C324.945 752.173 325.331 752.29 325.765 752.29C326.091 752.29 326.375 752.25 326.615 752.17C326.855 752.09 327.088 751.987 327.315 751.86L327.605 752.65C327.358 752.783 327.075 752.897 326.755 752.99C326.441 753.077 326.075 753.12 325.655 753.12ZM330.809 753.12C330.316 753.12 329.873 753.007 329.479 752.78C329.086 752.547 328.776 752.227 328.549 751.82C328.329 751.407 328.219 750.933 328.219 750.4C328.219 749.84 328.333 749.357 328.559 748.95C328.786 748.543 329.096 748.23 329.489 748.01C329.883 747.79 330.323 747.68 330.809 747.68C331.296 747.68 331.733 747.79 332.119 748.01C332.513 748.23 332.823 748.543 333.049 748.95C333.283 749.35 333.399 749.827 333.399 750.38C333.399 750.933 333.286 751.417 333.059 751.83C332.833 752.237 332.523 752.553 332.129 752.78C331.743 753.007 331.303 753.12 330.809 753.12ZM330.809 752.32C331.336 752.32 331.746 752.143 332.039 751.79C332.333 751.43 332.479 750.967 332.479 750.4C332.479 750.053 332.406 749.737 332.259 749.45C332.113 749.157 331.913 748.923 331.659 748.75C331.413 748.57 331.129 748.48 330.809 748.48C330.283 748.48 329.873 748.653 329.579 749C329.286 749.347 329.139 749.807 329.139 750.38C329.139 750.727 329.213 751.05 329.359 751.35C329.506 751.643 329.703 751.88 329.949 752.06C330.203 752.233 330.489 752.32 330.809 752.32ZM334.716 753V747.8H335.586V748.67C335.773 748.39 336.009 748.157 336.296 747.97C336.583 747.777 336.909 747.68 337.276 747.68C337.689 747.68 338.026 747.78 338.286 747.98C338.553 748.18 338.739 748.447 338.846 748.78C339.053 748.473 339.296 748.213 339.576 748C339.863 747.787 340.216 747.68 340.636 747.68C341.203 747.68 341.623 747.86 341.896 748.22C342.176 748.573 342.316 749.037 342.316 749.61V753H341.416V749.68C341.416 749.32 341.333 749.03 341.166 748.81C340.999 748.583 340.769 748.47 340.476 748.47C340.176 748.47 339.896 748.583 339.636 748.81C339.383 749.03 339.159 749.29 338.966 749.59V753H338.066V749.68C338.066 749.32 337.983 749.03 337.816 748.81C337.649 748.583 337.419 748.47 337.126 748.47C336.833 748.47 336.556 748.58 336.296 748.8C336.036 749.013 335.809 749.267 335.616 749.56V753H334.716ZM344.176 755.2V749.13C344.176 748.903 344.12 748.743 344.006 748.65C343.9 748.55 343.76 748.5 343.586 748.5L343.776 747.8C344.39 747.8 344.773 748.043 344.926 748.53C344.993 748.43 345.1 748.313 345.246 748.18C345.4 748.047 345.586 747.93 345.806 747.83C346.033 747.73 346.29 747.68 346.576 747.68C346.976 747.68 347.35 747.787 347.696 748C348.05 748.207 348.333 748.51 348.546 748.91C348.76 749.303 348.866 749.783 348.866 750.35C348.866 750.903 348.76 751.39 348.546 751.81C348.333 752.223 348.053 752.547 347.706 752.78C347.366 753.007 346.996 753.12 346.596 753.12C346.29 753.12 346.003 753.06 345.736 752.94C345.47 752.813 345.25 752.67 345.076 752.51V755.2H344.176ZM346.416 752.32C346.87 752.32 347.236 752.143 347.516 751.79C347.803 751.43 347.946 750.96 347.946 750.38C347.946 749.98 347.873 749.637 347.726 749.35C347.586 749.063 347.396 748.843 347.156 748.69C346.923 748.537 346.663 748.46 346.376 748.46C346.09 748.46 345.83 748.533 345.596 748.68C345.37 748.82 345.196 748.973 345.076 749.14V751.7C345.25 751.88 345.45 752.03 345.676 752.15C345.903 752.263 346.15 752.32 346.416 752.32ZM352.059 753.12C351.559 753.12 351.162 752.957 350.869 752.63C350.582 752.297 350.439 751.823 350.439 751.21V748.77H349.539V747.99H350.459L350.649 746.35H351.339V747.99H352.779V748.77H351.339V751.28C351.339 751.667 351.419 751.937 351.579 752.09C351.746 752.243 351.942 752.32 352.169 752.32C352.336 752.32 352.492 752.293 352.639 752.24C352.792 752.187 352.932 752.123 353.059 752.05L353.309 752.77C353.176 752.85 352.996 752.927 352.769 753C352.542 753.08 352.306 753.12 352.059 753.12ZM356.218 753.12C355.472 753.12 354.878 752.883 354.438 752.41C354.005 751.93 353.788 751.26 353.788 750.4C353.788 749.88 353.885 749.417 354.078 749.01C354.278 748.597 354.555 748.273 354.908 748.04C355.262 747.8 355.672 747.68 356.138 747.68C356.638 747.68 357.052 747.79 357.378 748.01C357.712 748.223 357.962 748.513 358.128 748.88C358.295 749.247 358.378 749.65 358.378 750.09C358.378 750.323 358.368 750.55 358.348 750.77H354.708C354.768 751.257 354.938 751.637 355.218 751.91C355.498 752.183 355.868 752.32 356.328 752.32C356.628 752.32 356.898 752.29 357.138 752.23C357.378 752.163 357.608 752.08 357.828 751.98L358.038 752.75C357.798 752.857 357.528 752.943 357.228 753.01C356.928 753.083 356.592 753.12 356.218 753.12ZM354.698 750.04H357.548C357.548 749.533 357.422 749.143 357.168 748.87C356.915 748.597 356.565 748.46 356.118 748.46C355.732 748.46 355.412 748.597 355.158 748.87C354.905 749.137 354.752 749.527 354.698 750.04Z" fill="white" fill-opacity="0.87"/>
<rect width="93.75" height="49" transform="translate(187.75 709)" fill="#1B1926"/>
<path d="M213.282 753.12L212.412 751.22C212.192 750.747 211.916 750.41 211.582 750.21C211.249 750.01 210.822 749.91 210.302 749.91H210.152V753H209.202V746.02C209.556 745.987 209.892 745.963 210.212 745.95C210.539 745.93 210.886 745.92 211.252 745.92C212.106 745.92 212.746 746.093 213.172 746.44C213.606 746.787 213.822 747.233 213.822 747.78C213.822 748.267 213.676 748.66 213.382 748.96C213.096 749.253 212.679 749.473 212.132 749.62C212.312 749.7 212.472 749.797 212.612 749.91C212.752 750.017 212.886 750.163 213.012 750.35C213.146 750.53 213.279 750.767 213.412 751.06L214.172 752.7L213.282 753.12ZM210.152 749.11H211.252C211.732 749.11 212.122 749.003 212.422 748.79C212.722 748.577 212.872 748.27 212.872 747.87C212.872 747.537 212.732 747.263 212.452 747.05C212.172 746.83 211.772 746.72 211.252 746.72C211.026 746.72 210.822 746.723 210.642 746.73C210.462 746.737 210.299 746.747 210.152 746.76V749.11ZM217.474 753.12C216.728 753.12 216.134 752.883 215.694 752.41C215.261 751.93 215.044 751.26 215.044 750.4C215.044 749.88 215.141 749.417 215.334 749.01C215.534 748.597 215.811 748.273 216.164 748.04C216.518 747.8 216.928 747.68 217.394 747.68C217.894 747.68 218.308 747.79 218.634 748.01C218.968 748.223 219.218 748.513 219.384 748.88C219.551 749.247 219.634 749.65 219.634 750.09C219.634 750.323 219.624 750.55 219.604 750.77H215.964C216.024 751.257 216.194 751.637 216.474 751.91C216.754 752.183 217.124 752.32 217.584 752.32C217.884 752.32 218.154 752.29 218.394 752.23C218.634 752.163 218.864 752.08 219.084 751.98L219.294 752.75C219.054 752.857 218.784 752.943 218.484 753.01C218.184 753.083 217.848 753.12 217.474 753.12ZM215.954 750.04H218.804C218.804 749.533 218.678 749.143 218.424 748.87C218.171 748.597 217.821 748.46 217.374 748.46C216.988 748.46 216.668 748.597 216.414 748.87C216.161 749.137 216.008 749.527 215.954 750.04ZM223.054 753.12C222.56 753.12 222.127 753.007 221.754 752.78C221.387 752.547 221.104 752.227 220.904 751.82C220.704 751.407 220.604 750.933 220.604 750.4C220.604 749.9 220.704 749.443 220.904 749.03C221.11 748.617 221.404 748.29 221.784 748.05C222.164 747.803 222.61 747.68 223.124 747.68C223.417 747.68 223.674 747.707 223.894 747.76C224.12 747.813 224.337 747.89 224.544 747.99L224.274 748.75C224.087 748.657 223.907 748.59 223.734 748.55C223.567 748.503 223.38 748.48 223.174 748.48C222.707 748.48 222.314 748.65 221.994 748.99C221.68 749.323 221.524 749.787 221.524 750.38C221.524 750.74 221.59 751.067 221.724 751.36C221.857 751.653 222.04 751.887 222.274 752.06C222.514 752.233 222.794 752.32 223.114 752.32C223.367 752.32 223.584 752.293 223.764 752.24C223.944 752.18 224.137 752.097 224.344 751.99L224.624 752.75C224.417 752.863 224.184 752.953 223.924 753.02C223.67 753.087 223.38 753.12 223.054 753.12ZM225.79 753V745.6H226.69V748.63C226.877 748.357 227.114 748.13 227.4 747.95C227.687 747.77 228.024 747.68 228.41 747.68C228.997 747.68 229.434 747.857 229.72 748.21C230.014 748.563 230.16 749.03 230.16 749.61V753H229.26V749.71C229.26 749.337 229.174 749.037 229 748.81C228.827 748.583 228.584 748.47 228.27 748.47C227.964 748.47 227.67 748.58 227.39 748.8C227.117 749.013 226.884 749.267 226.69 749.56V753H225.79ZM233.908 753.12C233.162 753.12 232.568 752.883 232.128 752.41C231.695 751.93 231.478 751.26 231.478 750.4C231.478 749.88 231.575 749.417 231.768 749.01C231.968 748.597 232.245 748.273 232.598 748.04C232.952 747.8 233.362 747.68 233.828 747.68C234.328 747.68 234.742 747.79 235.068 748.01C235.402 748.223 235.652 748.513 235.818 748.88C235.985 749.247 236.068 749.65 236.068 750.09C236.068 750.323 236.058 750.55 236.038 750.77H232.398C232.458 751.257 232.628 751.637 232.908 751.91C233.188 752.183 233.558 752.32 234.018 752.32C234.318 752.32 234.588 752.29 234.828 752.23C235.068 752.163 235.298 752.08 235.518 751.98L235.728 752.75C235.488 752.857 235.218 752.943 234.918 753.01C234.618 753.083 234.282 753.12 233.908 753.12ZM232.388 750.04H235.238C235.238 749.533 235.112 749.143 234.858 748.87C234.605 748.597 234.255 748.46 233.808 748.46C233.422 748.46 233.102 748.597 232.848 748.87C232.595 749.137 232.442 749.527 232.388 750.04ZM237.388 753V747.8H238.258V748.93C238.345 748.71 238.461 748.507 238.608 748.32C238.755 748.127 238.938 747.973 239.158 747.86C239.378 747.74 239.635 747.68 239.928 747.68C240.028 747.68 240.128 747.687 240.228 747.7C240.328 747.707 240.411 747.72 240.478 747.74L240.208 748.67C240.081 748.617 239.931 748.59 239.758 748.59C239.511 748.59 239.275 748.66 239.048 748.8C238.828 748.94 238.645 749.157 238.498 749.45C238.358 749.743 238.288 750.117 238.288 750.57V753H237.388ZM243.299 753.12C242.806 753.12 242.373 753.007 241.999 752.78C241.633 752.547 241.349 752.227 241.149 751.82C240.949 751.407 240.849 750.933 240.849 750.4C240.849 749.9 240.949 749.443 241.149 749.03C241.356 748.617 241.649 748.29 242.029 748.05C242.409 747.803 242.856 747.68 243.369 747.68C243.663 747.68 243.919 747.707 244.139 747.76C244.366 747.813 244.583 747.89 244.789 747.99L244.519 748.75C244.333 748.657 244.153 748.59 243.979 748.55C243.813 748.503 243.626 748.48 243.419 748.48C242.953 748.48 242.559 748.65 242.239 748.99C241.926 749.323 241.769 749.787 241.769 750.38C241.769 750.74 241.836 751.067 241.969 751.36C242.103 751.653 242.286 751.887 242.519 752.06C242.759 752.233 243.039 752.32 243.359 752.32C243.613 752.32 243.829 752.293 244.009 752.24C244.189 752.18 244.383 752.097 244.589 751.99L244.869 752.75C244.663 752.863 244.429 752.953 244.169 753.02C243.916 753.087 243.626 753.12 243.299 753.12ZM246.036 753V745.6H246.936V748.63C247.123 748.357 247.359 748.13 247.646 747.95C247.933 747.77 248.269 747.68 248.656 747.68C249.243 747.68 249.679 747.857 249.966 748.21C250.259 748.563 250.406 749.03 250.406 749.61V753H249.506V749.71C249.506 749.337 249.419 749.037 249.246 748.81C249.073 748.583 248.829 748.47 248.516 748.47C248.209 748.47 247.916 748.58 247.636 748.8C247.363 749.013 247.129 749.267 246.936 749.56V753H246.036ZM254.154 753.12C253.407 753.12 252.814 752.883 252.374 752.41C251.941 751.93 251.724 751.26 251.724 750.4C251.724 749.88 251.821 749.417 252.014 749.01C252.214 748.597 252.491 748.273 252.844 748.04C253.197 747.8 253.607 747.68 254.074 747.68C254.574 747.68 254.987 747.79 255.314 748.01C255.647 748.223 255.897 748.513 256.064 748.88C256.231 749.247 256.314 749.65 256.314 750.09C256.314 750.323 256.304 750.55 256.284 750.77H252.644C252.704 751.257 252.874 751.637 253.154 751.91C253.434 752.183 253.804 752.32 254.264 752.32C254.564 752.32 254.834 752.29 255.074 752.23C255.314 752.163 255.544 752.08 255.764 751.98L255.974 752.75C255.734 752.857 255.464 752.943 255.164 753.01C254.864 753.083 254.527 753.12 254.154 753.12ZM252.634 750.04H255.484C255.484 749.533 255.357 749.143 255.104 748.87C254.851 748.597 254.501 748.46 254.054 748.46C253.667 748.46 253.347 748.597 253.094 748.87C252.841 749.137 252.687 749.527 252.634 750.04ZM257.634 753V747.8H258.504V748.93C258.59 748.71 258.707 748.507 258.854 748.32C259 748.127 259.184 747.973 259.404 747.86C259.624 747.74 259.88 747.68 260.174 747.68C260.274 747.68 260.374 747.687 260.474 747.7C260.574 747.707 260.657 747.72 260.724 747.74L260.454 748.67C260.327 748.617 260.177 748.59 260.004 748.59C259.757 748.59 259.52 748.66 259.294 748.8C259.074 748.94 258.89 749.157 258.744 749.45C258.604 749.743 258.534 750.117 258.534 750.57V753H257.634Z" fill="white" fill-opacity="0.87"/>
<rect width="93.75" height="49" transform="translate(94 709)" fill="#1B1926"/>
<rect width="93.75" height="49" transform="translate(0 709)" fill="#1B1926"/>
<path d="M35.4902 753.1L34.7102 751.1H31.4702L30.6902 753.08L29.8802 752.75L32.6202 746H33.6602L36.3602 752.75L35.4902 753.1ZM31.7702 750.3H34.4002L33.0902 746.94L31.7702 750.3ZM39.4799 753.12C38.9866 753.12 38.5532 753.007 38.1799 752.78C37.8132 752.547 37.5299 752.227 37.3299 751.82C37.1299 751.407 37.0299 750.933 37.0299 750.4C37.0299 749.9 37.1299 749.443 37.3299 749.03C37.5366 748.617 37.8299 748.29 38.2099 748.05C38.5899 747.803 39.0366 747.68 39.5499 747.68C39.8432 747.68 40.0999 747.707 40.3199 747.76C40.5466 747.813 40.7632 747.89 40.9699 747.99L40.6999 748.75C40.5132 748.657 40.3332 748.59 40.1599 748.55C39.9932 748.503 39.8066 748.48 39.5999 748.48C39.1332 748.48 38.7399 748.65 38.4199 748.99C38.1066 749.323 37.9499 749.787 37.9499 750.38C37.9499 750.74 38.0166 751.067 38.1499 751.36C38.2832 751.653 38.4666 751.887 38.6999 752.06C38.9399 752.233 39.2199 752.32 39.5399 752.32C39.7932 752.32 40.0099 752.293 40.1899 752.24C40.3699 752.18 40.5632 752.097 40.7699 751.99L41.0499 752.75C40.8432 752.863 40.6099 752.953 40.3499 753.02C40.0966 753.087 39.8066 753.12 39.4799 753.12ZM44.219 753.12C43.7257 753.12 43.2924 753.007 42.919 752.78C42.5524 752.547 42.269 752.227 42.069 751.82C41.869 751.407 41.769 750.933 41.769 750.4C41.769 749.9 41.869 749.443 42.069 749.03C42.2757 748.617 42.569 748.29 42.949 748.05C43.329 747.803 43.7757 747.68 44.289 747.68C44.5824 747.68 44.839 747.707 45.059 747.76C45.2857 747.813 45.5024 747.89 45.709 747.99L45.439 748.75C45.2524 748.657 45.0724 748.59 44.899 748.55C44.7324 748.503 44.5457 748.48 44.339 748.48C43.8724 748.48 43.479 748.65 43.159 748.99C42.8457 749.323 42.689 749.787 42.689 750.38C42.689 750.74 42.7557 751.067 42.889 751.36C43.0224 751.653 43.2057 751.887 43.439 752.06C43.679 752.233 43.959 752.32 44.279 752.32C44.5324 752.32 44.749 752.293 44.929 752.24C45.109 752.18 45.3024 752.097 45.509 751.99L45.789 752.75C45.5824 752.863 45.349 752.953 45.089 753.02C44.8357 753.087 44.5457 753.12 44.219 753.12ZM48.6558 753.12C48.3558 753.12 48.0725 753.057 47.8058 752.93C47.5392 752.803 47.3225 752.6 47.1558 752.32C46.9892 752.033 46.9058 751.653 46.9058 751.18V747.8H47.8058V751.06C47.8058 751.467 47.8925 751.78 48.0658 752C48.2392 752.213 48.4925 752.32 48.8258 752.32C49.0992 752.32 49.3625 752.267 49.6158 752.16C49.8758 752.047 50.1058 751.897 50.3058 751.71V747.8H51.2058V751.65C51.2058 751.937 51.2658 752.127 51.3858 752.22C51.5125 752.307 51.6492 752.35 51.7958 752.35L51.6058 753.05C50.9858 753.05 50.6025 752.803 50.4558 752.31C50.2225 752.55 49.9525 752.747 49.6458 752.9C49.3392 753.047 49.0092 753.12 48.6558 753.12ZM55.0933 753.12C54.3467 753.12 53.7533 752.883 53.3133 752.41C52.88 751.93 52.6633 751.26 52.6633 750.4C52.6633 749.88 52.76 749.417 52.9533 749.01C53.1533 748.597 53.43 748.273 53.7833 748.04C54.1367 747.8 54.5467 747.68 55.0133 747.68C55.5133 747.68 55.9267 747.79 56.2533 748.01C56.5867 748.223 56.8367 748.513 57.0033 748.88C57.17 749.247 57.2533 749.65 57.2533 750.09C57.2533 750.323 57.2433 750.55 57.2233 750.77H53.5833C53.6433 751.257 53.8133 751.637 54.0933 751.91C54.3733 752.183 54.7433 752.32 55.2033 752.32C55.5033 752.32 55.7733 752.29 56.0133 752.23C56.2533 752.163 56.4833 752.08 56.7033 751.98L56.9133 752.75C56.6733 752.857 56.4033 752.943 56.1033 753.01C55.8033 753.083 55.4667 753.12 55.0933 753.12ZM53.5733 750.04H56.4233C56.4233 749.533 56.2967 749.143 56.0433 748.87C55.79 748.597 55.44 748.46 54.9933 748.46C54.6067 748.46 54.2867 748.597 54.0333 748.87C53.78 749.137 53.6267 749.527 53.5733 750.04ZM58.5728 753V747.8H59.4728V753H58.5728ZM59.0228 746.91C58.8494 746.91 58.6994 746.847 58.5728 746.72C58.4528 746.593 58.3928 746.447 58.3928 746.28C58.3928 746.087 58.4494 745.933 58.5628 745.82C58.6761 745.707 58.8294 745.65 59.0228 745.65C59.1961 745.65 59.3428 745.713 59.4628 745.84C59.5894 745.96 59.6528 746.107 59.6528 746.28C59.6528 746.467 59.5961 746.62 59.4828 746.74C59.3694 746.853 59.2161 746.91 59.0228 746.91ZM62.7728 753.12C62.4661 753.12 62.1894 753.063 61.9428 752.95C61.6961 752.83 61.4994 752.64 61.3528 752.38C61.2128 752.12 61.1428 751.783 61.1428 751.37V745.6H62.0428V751.28C62.0428 751.64 62.1161 751.907 62.2628 752.08C62.4161 752.253 62.6261 752.34 62.8928 752.34C63.0194 752.34 63.1428 752.327 63.2628 752.3C63.3894 752.267 63.4961 752.23 63.5828 752.19L63.8028 752.92C63.6828 752.973 63.5328 753.02 63.3528 753.06C63.1794 753.1 62.9861 753.12 62.7728 753.12Z" fill="white"/>
</g>
<path fill-rule="evenodd" clip-rule="evenodd" d="M319 725C319 721.229 319 719.343 320.172 718.172C321.343 717 323.229 717 327 717H331C334.771 717 336.657 717 337.828 718.172C339 719.343 339 721.229 339 725V729C339 732.771 339 734.657 337.828 735.828C336.657 737 334.771 737 331 737H327C323.229 737 321.343 737 320.172 735.828C319 734.657 319 732.771 319 729V725ZM324.739 731.446C325.961 730.508 327.459 730 329 730C330.541 730 332.039 730.508 333.261 731.446C334.484 732.385 335.363 733.7 335.761 735.188C335.904 735.722 335.588 736.27 335.054 736.413C334.521 736.556 333.973 736.239 333.83 735.706C333.545 734.643 332.917 733.703 332.044 733.033C331.171 732.363 330.101 732 329 732C327.899 732 326.829 732.363 325.956 733.033C325.083 733.703 324.455 734.643 324.17 735.706C324.027 736.239 323.479 736.556 322.946 736.413C322.412 736.27 322.096 735.722 322.239 735.188C322.637 733.7 323.516 732.385 324.739 731.446ZM327 724C327 722.895 327.895 722 329 722C330.105 722 331 722.895 331 724C331 725.105 330.105 726 329 726C327.895 726 327 725.105 327 724ZM329 720C326.791 720 325 721.791 325 724C325 726.209 326.791 728 329 728C331.209 728 333 726.209 333 724C333 721.791 331.209 720 329 720Z" fill="#FEF8F8"/>
<rect x="319.5" y="717.5" width="19" height="19" rx="3.5" stroke="#FEF8F8"/>
<path d="M244 736L242 734" stroke="white" stroke-width="2" stroke-linecap="round"/>
<path fill-rule="evenodd" clip-rule="evenodd" d="M235 734C238.866 734 242 730.866 242 727C242 723.134 238.866 720 235 720C231.134 720 228 723.134 228 727C228 730.866 231.134 734 235 734ZM235 722C234.343 722 233.693 722.129 233.087 722.381C232.48 722.632 231.929 723 231.464 723.464C231 723.929 230.632 724.48 230.381 725.087C230.129 725.693 230 726.343 230 727C230 727.552 230.448 728 231 728C231.552 728 232 727.552 232 727C232 726.606 232.078 726.216 232.228 725.852C232.379 725.488 232.6 725.157 232.879 724.879C233.157 724.6 233.488 724.379 233.852 724.228C234.216 724.078 234.606 724 235 724C235.552 724 236 723.552 236 723C236 722.448 235.552 722 235 722Z" fill="white"/>
<path fill-rule="evenodd" clip-rule="evenodd" d="M40.2745 724.126C40 724.723 40 725.402 40 726.76V731C40 732.886 40 733.828 40.5858 734.414C41.1173 734.946 41.9428 734.995 43.5 734.999V730C43.5 728.895 44.3954 728 45.5 728H48.5C49.6046 728 50.5 728.895 50.5 730V734.999C52.0572 734.995 52.8827 734.946 53.4142 734.414C54 733.828 54 732.886 54 731V726.76C54 725.402 54 724.723 53.7255 724.126C53.4511 723.529 52.9356 723.088 51.9047 722.204L50.9047 721.347C49.0414 719.75 48.1098 718.951 47 718.951C45.8902 718.951 44.9586 719.75 43.0953 721.347L42.0953 722.204C41.0644 723.088 40.5489 723.529 40.2745 724.126ZM48.5 735V730H45.5V735H48.5Z" fill="white"/>
<defs>
<filter id="filter0_d_2_14" x="0" y="708.5" width="376" height="83.5" filterUnits="userSpaceOnUse" color-interpolation-filters="sRGB">
<feFlood flood-opacity="0" result="BackgroundImageFix"/>
<feColorMatrix in="SourceAlpha" type="matrix" values="0 0 0 0 0 0 0 0 0 0 0 0 0 0 0 0 0 0 127 0" result="hardAlpha"/>
<feOffset dy="-0.5"/>
<feComposite in2="hardAlpha" operator="out"/>
<feColorMatrix type="matrix" values="0 0 0 0 0 0 0 0 0 0 0 0 0 0 0 0 0 0 0.1 0"/>
<feBlend mode="normal" in2="BackgroundImageFix" result="effect1_dropShadow_2_14"/>
<feBlend mode="normal" in="SourceGraphic" in2="effect1_dropShadow_2_14" result="shape"/>
</filter>
</defs>
</svg>
