<svg width="343" height="22" viewBox="0 0 343 22" fill="none" xmlns="http://www.w3.org/2000/svg">
<path d="M1.312 16C1.19467 16 1.10933 15.968 1.056 15.904C1.00267 15.8293 0.981333 15.7333 0.992 15.616L2.688 4.944C2.70933 4.82667 2.74667 4.74667 2.8 4.704C2.864 4.65067 2.94933 4.624 3.056 4.624C3.17333 4.624 3.25333 4.66133 3.296 4.736C3.34933 4.8 3.36533 4.89067 3.344 5.008L1.712 15.376H7.424C7.53067 15.376 7.61067 15.3973 7.664 15.44C7.728 15.472 7.76 15.5307 7.76 15.616C7.76 15.7547 7.72267 15.856 7.648 15.92C7.57333 15.9733 7.488 16 7.392 16H1.312ZM12.2794 16.128C11.65 16.128 11.1007 15.9947 10.6314 15.728C10.162 15.4613 9.79937 15.0827 9.54337 14.592C9.29804 14.0907 9.17537 13.4933 9.17537 12.8C9.17537 12.1813 9.25537 11.5947 9.41537 11.04C9.58604 10.4747 9.83671 9.97333 10.1674 9.536C10.498 9.09867 10.9034 8.75733 11.3834 8.512C11.8634 8.256 12.418 8.128 13.0474 8.128C13.6874 8.128 14.2367 8.26133 14.6954 8.528C15.1647 8.79467 15.522 9.17867 15.7674 9.68C16.0234 10.1707 16.1514 10.7627 16.1514 11.456C16.1514 12.0747 16.066 12.6667 15.8954 13.232C15.7354 13.7867 15.49 14.2827 15.1594 14.72C14.8287 15.1573 14.4234 15.504 13.9434 15.76C13.4634 16.0053 12.9087 16.128 12.2794 16.128ZM12.3114 15.504C12.994 15.504 13.57 15.3173 14.0394 14.944C14.5087 14.5707 14.8607 14.0747 15.0954 13.456C15.3407 12.8373 15.4634 12.16 15.4634 11.424C15.4634 10.5387 15.2447 9.872 14.8074 9.424C14.3807 8.976 13.7834 8.752 13.0154 8.752C12.3327 8.752 11.7567 8.93867 11.2874 9.312C10.818 9.68533 10.4607 10.1813 10.2154 10.8C9.98071 11.408 9.86337 12.0853 9.86337 12.832C9.86337 13.7067 10.0767 14.3733 10.5034 14.832C10.9407 15.28 11.5434 15.504 12.3114 15.504ZM20.4106 16.128C19.888 16.128 19.456 16.0267 19.1146 15.824C18.7733 15.6107 18.5333 15.312 18.3946 14.928C18.256 14.544 18.2293 14.0853 18.3146 13.552L19.0666 8.832H17.8186C17.712 8.832 17.6266 8.81067 17.5626 8.768C17.4986 8.72533 17.4666 8.66667 17.4666 8.592C17.4666 8.47467 17.504 8.38933 17.5786 8.336C17.6533 8.28267 17.744 8.256 17.8506 8.256H19.1466L19.4986 6.08C19.52 5.96267 19.5626 5.87733 19.6266 5.824C19.6906 5.77067 19.776 5.744 19.8826 5.744C19.9893 5.744 20.064 5.78133 20.1066 5.856C20.16 5.92 20.176 6.016 20.1546 6.144L19.8186 8.256H22.0586C22.176 8.256 22.2613 8.27733 22.3146 8.32C22.3786 8.352 22.4106 8.41067 22.4106 8.496C22.4106 8.60267 22.3733 8.688 22.2986 8.752C22.2346 8.80533 22.144 8.832 22.0266 8.832H19.7226L19.0026 13.408C18.8853 14.1547 18.9493 14.6933 19.1946 15.024C19.4506 15.344 19.872 15.504 20.4586 15.504C20.7146 15.504 20.912 15.4827 21.0506 15.44C21.1893 15.3867 21.296 15.36 21.3706 15.36C21.4346 15.36 21.4826 15.3813 21.5146 15.424C21.5573 15.456 21.5786 15.5147 21.5786 15.6C21.5786 15.696 21.5626 15.776 21.5306 15.84C21.5093 15.8933 21.456 15.936 21.3706 15.968C21.264 16.0107 21.1146 16.048 20.9226 16.08C20.7413 16.112 20.5706 16.128 20.4106 16.128ZM25.5356 16.128C25.013 16.128 24.5223 16.0587 24.0636 15.92C23.6156 15.7813 23.2316 15.5947 22.9116 15.36C22.837 15.3067 22.789 15.2427 22.7676 15.168C22.7463 15.0933 22.741 15.024 22.7516 14.96C22.773 14.896 22.8103 14.8427 22.8636 14.8C22.917 14.7573 22.981 14.7413 23.0556 14.752C23.1303 14.752 23.2156 14.784 23.3116 14.848C23.6423 15.0827 23.9943 15.2533 24.3676 15.36C24.7516 15.456 25.157 15.504 25.5836 15.504C26.2236 15.504 26.7303 15.3707 27.1036 15.104C27.4876 14.8373 27.6796 14.4533 27.6796 13.952C27.6796 13.632 27.573 13.3653 27.3596 13.152C27.157 12.9387 26.869 12.784 26.4956 12.688L24.9436 12.272C24.4636 12.144 24.0796 11.9147 23.7916 11.584C23.5036 11.2533 23.3596 10.8587 23.3596 10.4C23.3596 9.952 23.4823 9.55733 23.7276 9.216C23.973 8.87467 24.3143 8.608 24.7516 8.416C25.189 8.224 25.6903 8.128 26.2556 8.128C26.725 8.128 27.173 8.20267 27.5996 8.352C28.0263 8.50133 28.373 8.69867 28.6396 8.944C28.7143 9.01867 28.7623 9.09333 28.7836 9.168C28.8156 9.24267 28.821 9.312 28.7996 9.376C28.7783 9.44 28.741 9.488 28.6876 9.52C28.6343 9.552 28.5703 9.568 28.4956 9.568C28.4316 9.55733 28.357 9.51467 28.2716 9.44C28.005 9.20533 27.701 9.03467 27.3596 8.928C27.0183 8.81067 26.645 8.752 26.2396 8.752C25.589 8.752 25.061 8.90133 24.6556 9.2C24.261 9.488 24.0636 9.88267 24.0636 10.384C24.0636 10.6933 24.1543 10.96 24.3356 11.184C24.5276 11.408 24.8156 11.5733 25.1996 11.68L26.7516 12.096C27.253 12.2347 27.6476 12.4533 27.9356 12.752C28.2343 13.0507 28.3836 13.4347 28.3836 13.904C28.3836 14.5867 28.1223 15.1307 27.5996 15.536C27.077 15.9307 26.389 16.128 25.5356 16.128ZM37.7229 16.128C37.0295 16.128 36.4269 15.9947 35.9149 15.728C35.4135 15.4613 35.0295 15.0827 34.7629 14.592C34.4962 14.0907 34.3629 13.4933 34.3629 12.8C34.3629 11.9787 34.5175 11.216 34.8269 10.512C35.1362 9.79733 35.5895 9.22133 36.1869 8.784C36.7842 8.34667 37.5095 8.128 38.3629 8.128C38.9389 8.128 39.4189 8.23467 39.8029 8.448C40.1975 8.65067 40.5069 8.928 40.7309 9.28C40.9655 9.632 41.1149 10.032 41.1789 10.48C41.2535 10.928 41.2589 11.3867 41.1949 11.856C41.1735 12.0053 41.1362 12.112 41.0829 12.176C41.0295 12.2293 40.9335 12.256 40.7949 12.256H34.8269L34.9229 11.664H40.8749L40.5709 11.856C40.6562 11.28 40.6349 10.7573 40.5069 10.288C40.3895 9.81867 40.1549 9.44533 39.8029 9.168C39.4615 8.88 38.9762 8.736 38.3469 8.736C37.6749 8.736 37.1149 8.89067 36.6669 9.2C36.2295 9.49867 35.8882 9.88267 35.6429 10.352C35.3975 10.8107 35.2322 11.2853 35.1469 11.776L35.0989 12.064C34.9282 13.088 35.0722 13.92 35.5309 14.56C36.0002 15.1893 36.7202 15.504 37.6909 15.504C38.1389 15.504 38.5495 15.4507 38.9229 15.344C39.2962 15.2267 39.6642 15.0347 40.0269 14.768C40.1229 14.6933 40.2082 14.656 40.2829 14.656C40.3575 14.6453 40.4215 14.6613 40.4749 14.704C40.5282 14.736 40.5602 14.784 40.5709 14.848C40.5922 14.912 40.5869 14.9867 40.5549 15.072C40.5229 15.1467 40.4642 15.216 40.3789 15.28C40.0269 15.5467 39.6109 15.7547 39.1309 15.904C38.6615 16.0533 38.1922 16.128 37.7229 16.128ZM43.0099 16.096C42.9032 16.096 42.8232 16.0587 42.7699 15.984C42.7272 15.8987 42.7165 15.792 42.7379 15.664L43.8739 8.496C43.8952 8.37867 43.9379 8.29333 44.0019 8.24C44.0659 8.18667 44.1512 8.16 44.2579 8.16C44.3539 8.16 44.4232 8.19733 44.4659 8.272C44.5192 8.336 44.5352 8.432 44.5139 8.56L44.2579 10.176H44.0819C44.3485 9.536 44.7485 9.03467 45.2819 8.672C45.8152 8.30933 46.4605 8.128 47.2179 8.128C47.7939 8.128 48.2739 8.24533 48.6579 8.48C49.0525 8.704 49.3299 9.05067 49.4899 9.52C49.6605 9.97867 49.6872 10.5653 49.5699 11.28L48.8499 15.792C48.8392 15.888 48.8019 15.9627 48.7379 16.016C48.6739 16.0693 48.5832 16.096 48.4659 16.096C48.3592 16.096 48.2792 16.064 48.2259 16C48.1832 15.9253 48.1725 15.824 48.1939 15.696L48.8979 11.264C49.0365 10.4107 48.9619 9.78133 48.6739 9.376C48.3859 8.96 47.8952 8.752 47.2019 8.752C46.2845 8.752 45.5592 9.02933 45.0259 9.584C44.5032 10.128 44.1672 10.8587 44.0179 11.776L43.3939 15.76C43.3619 15.984 43.2339 16.096 43.0099 16.096ZM58.6711 16.128C57.9565 16.128 57.3645 15.9893 56.8951 15.712C56.4365 15.424 56.0951 15.0293 55.8711 14.528C55.6471 14.016 55.5351 13.4293 55.5351 12.768C55.5351 12.2027 55.6098 11.648 55.7591 11.104C55.9085 10.5493 56.1378 10.048 56.4471 9.6C56.7671 9.152 57.1725 8.79467 57.6631 8.528C58.1645 8.26133 58.7618 8.128 59.4551 8.128C59.8711 8.128 60.2711 8.192 60.6551 8.32C61.0498 8.448 61.3805 8.61867 61.6471 8.832C61.7431 8.90667 61.8125 8.98667 61.8551 9.072C61.8978 9.15733 61.9138 9.23733 61.9031 9.312C61.8925 9.38667 61.8605 9.44533 61.8071 9.488C61.7645 9.53067 61.7111 9.552 61.6471 9.552C61.5831 9.54133 61.5085 9.504 61.4231 9.44C61.1351 9.19467 60.8258 9.01867 60.4951 8.912C60.1751 8.80533 59.8178 8.752 59.4231 8.752C58.8578 8.752 58.3725 8.86933 57.9671 9.104C57.5618 9.328 57.2311 9.63733 56.9751 10.032C56.7191 10.416 56.5271 10.848 56.3991 11.328C56.2818 11.7973 56.2231 12.2773 56.2231 12.768C56.2231 13.6 56.4151 14.2667 56.7991 14.768C57.1938 15.2587 57.8285 15.504 58.7031 15.504C59.0018 15.504 59.3111 15.456 59.6311 15.36C59.9618 15.2533 60.2711 15.088 60.5591 14.864C60.6338 14.8 60.7085 14.768 60.7831 14.768C60.8578 14.768 60.9165 14.7893 60.9591 14.832C61.0125 14.864 61.0498 14.912 61.0711 14.976C61.0925 15.04 61.0925 15.1093 61.0711 15.184C61.0498 15.248 61.0071 15.3067 60.9431 15.36C60.6445 15.6053 60.2871 15.7973 59.8711 15.936C59.4658 16.064 59.0658 16.128 58.6711 16.128ZM65.7481 16.128C65.1188 16.128 64.5695 15.9947 64.1001 15.728C63.6308 15.4613 63.2681 15.0827 63.0121 14.592C62.7668 14.0907 62.6441 13.4933 62.6441 12.8C62.6441 12.1813 62.7241 11.5947 62.8841 11.04C63.0548 10.4747 63.3055 9.97333 63.6361 9.536C63.9668 9.09867 64.3721 8.75733 64.8521 8.512C65.3321 8.256 65.8868 8.128 66.5161 8.128C67.1561 8.128 67.7055 8.26133 68.1641 8.528C68.6335 8.79467 68.9908 9.17867 69.2361 9.68C69.4921 10.1707 69.6201 10.7627 69.6201 11.456C69.6201 12.0747 69.5348 12.6667 69.3641 13.232C69.2041 13.7867 68.9588 14.2827 68.6281 14.72C68.2975 15.1573 67.8921 15.504 67.4121 15.76C66.9321 16.0053 66.3775 16.128 65.7481 16.128ZM65.7801 15.504C66.4628 15.504 67.0388 15.3173 67.5081 14.944C67.9775 14.5707 68.3295 14.0747 68.5641 13.456C68.8095 12.8373 68.9321 12.16 68.9321 11.424C68.9321 10.5387 68.7135 9.872 68.2761 9.424C67.8495 8.976 67.2521 8.752 66.4841 8.752C65.8015 8.752 65.2255 8.93867 64.7561 9.312C64.2868 9.68533 63.9295 10.1813 63.6841 10.8C63.4495 11.408 63.3321 12.0853 63.3321 12.832C63.3321 13.7067 63.5455 14.3733 63.9721 14.832C64.4095 15.28 65.0121 15.504 65.7801 15.504ZM73.9415 16.128C73.3868 16.128 72.9175 16.016 72.5335 15.792C72.1495 15.5573 71.8775 15.2107 71.7175 14.752C71.5575 14.2827 71.5308 13.6907 71.6375 12.976L72.3415 8.496C72.3628 8.37867 72.4055 8.29333 72.4695 8.24C72.5335 8.18667 72.6188 8.16 72.7255 8.16C72.8322 8.16 72.9122 8.19733 72.9655 8.272C73.0188 8.336 73.0348 8.432 73.0135 8.56L72.3095 12.992C72.1708 13.8347 72.2402 14.464 72.5175 14.88C72.8055 15.296 73.2855 15.504 73.9575 15.504C74.8428 15.504 75.5468 15.2267 76.0695 14.672C76.5922 14.1173 76.9228 13.3867 77.0615 12.48L77.6855 8.496C77.7068 8.37867 77.7495 8.29333 77.8135 8.24C77.8775 8.18667 77.9628 8.16 78.0695 8.16C78.1762 8.16 78.2562 8.192 78.3095 8.256C78.3628 8.30933 78.3788 8.39467 78.3575 8.512L77.2055 15.76C77.1735 15.984 77.0508 16.096 76.8375 16.096C76.7308 16.096 76.6508 16.064 76.5975 16C76.5548 15.9253 76.5442 15.824 76.5655 15.696L76.8215 14.08H76.9975C76.7522 14.72 76.3628 15.2213 75.8295 15.584C75.2962 15.9467 74.6668 16.128 73.9415 16.128ZM80.2442 16.096C80.1376 16.096 80.0576 16.064 80.0042 16C79.9616 15.9253 79.9509 15.824 79.9722 15.696L81.1082 8.496C81.1296 8.37867 81.1722 8.29333 81.2362 8.24C81.3002 8.18667 81.3856 8.16 81.4922 8.16C81.5882 8.16 81.6629 8.19733 81.7162 8.272C81.7696 8.336 81.7856 8.432 81.7642 8.56L81.5242 10.08H81.3482C81.5722 9.44 81.9616 8.94933 82.5162 8.608C83.0816 8.26667 83.6896 8.096 84.3402 8.096C84.5216 8.096 84.6442 8.11733 84.7082 8.16C84.7829 8.192 84.8202 8.26133 84.8202 8.368C84.8202 8.47467 84.7936 8.55467 84.7402 8.608C84.6869 8.65067 84.5856 8.68267 84.4362 8.704L84.2442 8.72C83.2736 8.79467 82.5696 9.08267 82.1322 9.584C81.7056 10.0853 81.4282 10.7307 81.3002 11.52L80.6282 15.76C80.6176 15.8667 80.5802 15.9467 80.5162 16C80.4522 16.064 80.3616 16.096 80.2442 16.096ZM87.8325 16.128C87.3098 16.128 86.8192 16.0587 86.3605 15.92C85.9125 15.7813 85.5285 15.5947 85.2085 15.36C85.1338 15.3067 85.0858 15.2427 85.0645 15.168C85.0432 15.0933 85.0378 15.024 85.0485 14.96C85.0698 14.896 85.1072 14.8427 85.1605 14.8C85.2138 14.7573 85.2778 14.7413 85.3525 14.752C85.4272 14.752 85.5125 14.784 85.6085 14.848C85.9392 15.0827 86.2912 15.2533 86.6645 15.36C87.0485 15.456 87.4538 15.504 87.8805 15.504C88.5205 15.504 89.0272 15.3707 89.4005 15.104C89.7845 14.8373 89.9765 14.4533 89.9765 13.952C89.9765 13.632 89.8698 13.3653 89.6565 13.152C89.4538 12.9387 89.1658 12.784 88.7925 12.688L87.2405 12.272C86.7605 12.144 86.3765 11.9147 86.0885 11.584C85.8005 11.2533 85.6565 10.8587 85.6565 10.4C85.6565 9.952 85.7792 9.55733 86.0245 9.216C86.2698 8.87467 86.6112 8.608 87.0485 8.416C87.4858 8.224 87.9872 8.128 88.5525 8.128C89.0218 8.128 89.4698 8.20267 89.8965 8.352C90.3232 8.50133 90.6698 8.69867 90.9365 8.944C91.0112 9.01867 91.0592 9.09333 91.0805 9.168C91.1125 9.24267 91.1178 9.312 91.0965 9.376C91.0752 9.44 91.0378 9.488 90.9845 9.52C90.9312 9.552 90.8672 9.568 90.7925 9.568C90.7285 9.55733 90.6538 9.51467 90.5685 9.44C90.3018 9.20533 89.9978 9.03467 89.6565 8.928C89.3152 8.81067 88.9418 8.752 88.5365 8.752C87.8858 8.752 87.3578 8.90133 86.9525 9.2C86.5578 9.488 86.3605 9.88267 86.3605 10.384C86.3605 10.6933 86.4512 10.96 86.6325 11.184C86.8245 11.408 87.1125 11.5733 87.4965 11.68L89.0485 12.096C89.5498 12.2347 89.9445 12.4533 90.2325 12.752C90.5312 13.0507 90.6805 13.4347 90.6805 13.904C90.6805 14.5867 90.4192 15.1307 89.8965 15.536C89.3738 15.9307 88.6858 16.128 87.8325 16.128Z" fill="white"/>
</svg>
