<svg width="343" height="22" viewBox="0 0 343 22" fill="none" xmlns="http://www.w3.org/2000/svg">
<path d="M8.752 18.544C8.79467 18.64 8.80533 18.72 8.784 18.784C8.77333 18.8587 8.74133 18.912 8.688 18.944C8.64533 18.9867 8.592 19.008 8.528 19.008C8.464 19.0187 8.4 19.008 8.336 18.976C8.28267 18.944 8.23467 18.8853 8.192 18.8L7.456 17.184C7.30667 16.8427 7.06667 16.5813 6.736 16.4C6.40533 16.2187 6.01067 16.128 5.552 16.128L6.24 15.808C6.67733 15.8293 7.03467 15.9253 7.312 16.096C7.6 16.2667 7.86133 16.6027 8.096 17.104L8.752 18.544ZM5.712 16.128C4.816 16.128 4.03733 15.9467 3.376 15.584C2.72533 15.2213 2.21867 14.688 1.856 13.984C1.49333 13.2693 1.312 12.4 1.312 11.376C1.312 10.4267 1.42933 9.54133 1.664 8.72C1.89867 7.89867 2.25067 7.17867 2.72 6.56C3.18933 5.94133 3.77067 5.46133 4.464 5.12C5.15733 4.768 5.95733 4.592 6.864 4.592C7.76 4.592 8.53867 4.77333 9.2 5.136C9.86133 5.49867 10.368 6.032 10.72 6.736C11.0827 7.44 11.264 8.30933 11.264 9.344C11.264 10.2933 11.1467 11.1787 10.912 12C10.6773 12.8213 10.3253 13.5413 9.856 14.16C9.38667 14.7787 8.80533 15.264 8.112 15.616C7.42933 15.9573 6.62933 16.128 5.712 16.128ZM5.744 15.472C6.78933 15.472 7.664 15.2053 8.368 14.672C9.08267 14.128 9.62133 13.392 9.984 12.464C10.3573 11.536 10.544 10.496 10.544 9.344C10.544 7.95733 10.2133 6.928 9.552 6.256C8.90133 5.584 7.98933 5.248 6.816 5.248C5.78133 5.248 4.90667 5.52 4.192 6.064C3.488 6.59733 2.94933 7.328 2.576 8.256C2.21333 9.17333 2.032 10.2133 2.032 11.376C2.032 12.7627 2.35733 13.792 3.008 14.464C3.66933 15.136 4.58133 15.472 5.744 15.472ZM15.5196 16.128C14.965 16.128 14.4956 16.016 14.1116 15.792C13.7276 15.5573 13.4556 15.2107 13.2956 14.752C13.1356 14.2827 13.109 13.6907 13.2156 12.976L13.9196 8.496C13.941 8.37867 13.9836 8.29333 14.0476 8.24C14.1116 8.18667 14.197 8.16 14.3036 8.16C14.4103 8.16 14.4903 8.19733 14.5436 8.272C14.597 8.336 14.613 8.432 14.5916 8.56L13.8876 12.992C13.749 13.8347 13.8183 14.464 14.0956 14.88C14.3836 15.296 14.8636 15.504 15.5356 15.504C16.421 15.504 17.125 15.2267 17.6476 14.672C18.1703 14.1173 18.501 13.3867 18.6396 12.48L19.2636 8.496C19.285 8.37867 19.3276 8.29333 19.3916 8.24C19.4556 8.18667 19.541 8.16 19.6476 8.16C19.7543 8.16 19.8343 8.192 19.8876 8.256C19.941 8.30933 19.957 8.39467 19.9356 8.512L18.7836 15.76C18.7516 15.984 18.629 16.096 18.4156 16.096C18.309 16.096 18.229 16.064 18.1756 16C18.133 15.9253 18.1223 15.824 18.1436 15.696L18.3996 14.08H18.5756C18.3303 14.72 17.941 15.2213 17.4076 15.584C16.8743 15.9467 16.245 16.128 15.5196 16.128ZM24.9104 16.128C24.217 16.128 23.6144 15.9947 23.1024 15.728C22.601 15.4613 22.217 15.0827 21.9504 14.592C21.6837 14.0907 21.5504 13.4933 21.5504 12.8C21.5504 11.9787 21.705 11.216 22.0144 10.512C22.3237 9.79733 22.777 9.22133 23.3744 8.784C23.9717 8.34667 24.697 8.128 25.5504 8.128C26.1264 8.128 26.6064 8.23467 26.9904 8.448C27.385 8.65067 27.6944 8.928 27.9184 9.28C28.153 9.632 28.3024 10.032 28.3664 10.48C28.441 10.928 28.4464 11.3867 28.3824 11.856C28.361 12.0053 28.3237 12.112 28.2704 12.176C28.217 12.2293 28.121 12.256 27.9824 12.256H22.0144L22.1104 11.664H28.0624L27.7584 11.856C27.8437 11.28 27.8224 10.7573 27.6944 10.288C27.577 9.81867 27.3424 9.44533 26.9904 9.168C26.649 8.88 26.1637 8.736 25.5344 8.736C24.8624 8.736 24.3024 8.89067 23.8544 9.2C23.417 9.49867 23.0757 9.88267 22.8304 10.352C22.585 10.8107 22.4197 11.2853 22.3344 11.776L22.2864 12.064C22.1157 13.088 22.2597 13.92 22.7184 14.56C23.1877 15.1893 23.9077 15.504 24.8784 15.504C25.3264 15.504 25.737 15.4507 26.1104 15.344C26.4837 15.2267 26.8517 15.0347 27.2144 14.768C27.3104 14.6933 27.3957 14.656 27.4704 14.656C27.545 14.6453 27.609 14.6613 27.6624 14.704C27.7157 14.736 27.7477 14.784 27.7584 14.848C27.7797 14.912 27.7744 14.9867 27.7424 15.072C27.7104 15.1467 27.6517 15.216 27.5664 15.28C27.2144 15.5467 26.7984 15.7547 26.3184 15.904C25.849 16.0533 25.3797 16.128 24.9104 16.128ZM36.4549 16.096C36.3269 16.096 36.2255 16.064 36.1509 16C36.0869 15.9253 36.0335 15.8187 35.9909 15.68L34.1189 8.688C34.0975 8.58133 34.0922 8.49067 34.1029 8.416C34.1242 8.34133 34.1615 8.28267 34.2149 8.24C34.2789 8.18667 34.3589 8.16 34.4549 8.16C34.5509 8.16 34.6202 8.18667 34.6629 8.24C34.7162 8.28267 34.7589 8.36267 34.7909 8.48L36.6469 15.76H36.2629L40.4869 8.416C40.5402 8.33067 40.5935 8.26667 40.6469 8.224C40.7002 8.18133 40.7695 8.16 40.8549 8.16C40.9509 8.16 41.0255 8.18667 41.0789 8.24C41.1429 8.29333 41.1749 8.36267 41.1749 8.448C41.1855 8.52267 41.1589 8.61333 41.0949 8.72L36.9829 15.76C36.9189 15.8667 36.8495 15.9467 36.7749 16C36.7002 16.064 36.5935 16.096 36.4549 16.096ZM44.9512 16.128C44.3219 16.128 43.7726 15.9947 43.3032 15.728C42.8339 15.4613 42.4712 15.0827 42.2152 14.592C41.9699 14.0907 41.8472 13.4933 41.8472 12.8C41.8472 12.1813 41.9272 11.5947 42.0872 11.04C42.2579 10.4747 42.5086 9.97333 42.8392 9.536C43.1699 9.09867 43.5752 8.75733 44.0552 8.512C44.5352 8.256 45.0899 8.128 45.7192 8.128C46.3592 8.128 46.9086 8.26133 47.3672 8.528C47.8366 8.79467 48.1939 9.17867 48.4392 9.68C48.6952 10.1707 48.8232 10.7627 48.8232 11.456C48.8232 12.0747 48.7379 12.6667 48.5672 13.232C48.4072 13.7867 48.1619 14.2827 47.8312 14.72C47.5006 15.1573 47.0952 15.504 46.6152 15.76C46.1352 16.0053 45.5806 16.128 44.9512 16.128ZM44.9832 15.504C45.6659 15.504 46.2419 15.3173 46.7112 14.944C47.1806 14.5707 47.5326 14.0747 47.7672 13.456C48.0126 12.8373 48.1352 12.16 48.1352 11.424C48.1352 10.5387 47.9166 9.872 47.4792 9.424C47.0526 8.976 46.4552 8.752 45.6872 8.752C45.0046 8.752 44.4286 8.93867 43.9592 9.312C43.4899 9.68533 43.1326 10.1813 42.8872 10.8C42.6526 11.408 42.5352 12.0853 42.5352 12.832C42.5352 13.7067 42.7486 14.3733 43.1752 14.832C43.6126 15.28 44.2152 15.504 44.9832 15.504ZM53.1446 16.128C52.59 16.128 52.1206 16.016 51.7366 15.792C51.3526 15.5573 51.0806 15.2107 50.9206 14.752C50.7606 14.2827 50.734 13.6907 50.8406 12.976L51.5446 8.496C51.566 8.37867 51.6086 8.29333 51.6726 8.24C51.7366 8.18667 51.822 8.16 51.9286 8.16C52.0353 8.16 52.1153 8.19733 52.1686 8.272C52.222 8.336 52.238 8.432 52.2166 8.56L51.5126 12.992C51.374 13.8347 51.4433 14.464 51.7206 14.88C52.0086 15.296 52.4886 15.504 53.1606 15.504C54.046 15.504 54.75 15.2267 55.2726 14.672C55.7953 14.1173 56.126 13.3867 56.2646 12.48L56.8886 8.496C56.91 8.37867 56.9526 8.29333 57.0166 8.24C57.0806 8.18667 57.166 8.16 57.2726 8.16C57.3793 8.16 57.4593 8.192 57.5126 8.256C57.566 8.30933 57.582 8.39467 57.5606 8.512L56.4086 15.76C56.3766 15.984 56.254 16.096 56.0406 16.096C55.934 16.096 55.854 16.064 55.8006 16C55.758 15.9253 55.7473 15.824 55.7686 15.696L56.0246 14.08H56.2006C55.9553 14.72 55.566 15.2213 55.0326 15.584C54.4993 15.9467 53.87 16.128 53.1446 16.128ZM61.1914 16.128C60.53 16.128 60.0447 15.9253 59.7354 15.52C59.426 15.1147 59.3354 14.512 59.4634 13.712L60.8554 4.96C60.8767 4.84267 60.9194 4.75733 60.9834 4.704C61.0474 4.65067 61.1327 4.624 61.2394 4.624C61.346 4.624 61.4207 4.66133 61.4634 4.736C61.5167 4.8 61.5327 4.896 61.5114 5.024L60.1354 13.712C60.0287 14.3627 60.0714 14.8267 60.2634 15.104C60.466 15.3707 60.818 15.504 61.3194 15.504C61.49 15.504 61.618 15.4933 61.7034 15.472C61.7994 15.4507 61.8687 15.44 61.9114 15.44C61.9647 15.44 62.0074 15.456 62.0394 15.488C62.0714 15.52 62.0874 15.584 62.0874 15.68C62.0874 15.7867 62.05 15.8773 61.9754 15.952C61.9114 16.016 61.8207 16.0587 61.7034 16.08C61.6287 16.0907 61.538 16.1013 61.4314 16.112C61.3354 16.1227 61.2554 16.128 61.1914 16.128ZM66.8635 16.128C66.1702 16.128 65.5675 15.9947 65.0555 15.728C64.5542 15.4613 64.1702 15.0827 63.9035 14.592C63.6368 14.0907 63.5035 13.4933 63.5035 12.8C63.5035 11.9787 63.6582 11.216 63.9675 10.512C64.2768 9.79733 64.7302 9.22133 65.3275 8.784C65.9248 8.34667 66.6502 8.128 67.5035 8.128C68.0795 8.128 68.5595 8.23467 68.9435 8.448C69.3382 8.65067 69.6475 8.928 69.8715 9.28C70.1062 9.632 70.2555 10.032 70.3195 10.48C70.3942 10.928 70.3995 11.3867 70.3355 11.856C70.3142 12.0053 70.2768 12.112 70.2235 12.176C70.1702 12.2293 70.0742 12.256 69.9355 12.256H63.9675L64.0635 11.664H70.0155L69.7115 11.856C69.7968 11.28 69.7755 10.7573 69.6475 10.288C69.5302 9.81867 69.2955 9.44533 68.9435 9.168C68.6022 8.88 68.1168 8.736 67.4875 8.736C66.8155 8.736 66.2555 8.89067 65.8075 9.2C65.3702 9.49867 65.0288 9.88267 64.7835 10.352C64.5382 10.8107 64.3728 11.2853 64.2875 11.776L64.2395 12.064C64.0688 13.088 64.2128 13.92 64.6715 14.56C65.1408 15.1893 65.8608 15.504 66.8315 15.504C67.2795 15.504 67.6902 15.4507 68.0635 15.344C68.4368 15.2267 68.8048 15.0347 69.1675 14.768C69.2635 14.6933 69.3488 14.656 69.4235 14.656C69.4982 14.6453 69.5622 14.6613 69.6155 14.704C69.6688 14.736 69.7008 14.784 69.7115 14.848C69.7328 14.912 69.7275 14.9867 69.6955 15.072C69.6635 15.1467 69.6048 15.216 69.5195 15.28C69.1675 15.5467 68.7515 15.7547 68.2715 15.904C67.8022 16.0533 67.3328 16.128 66.8635 16.128ZM71.7657 16C71.7017 16 71.6431 15.9893 71.5897 15.968C71.5471 15.936 71.5097 15.8987 71.4777 15.856C71.4564 15.8027 71.4511 15.7493 71.4617 15.696C71.4724 15.632 71.5044 15.568 71.5577 15.504L77.4777 8.624L77.5257 8.816H72.8377C72.7417 8.816 72.6671 8.79467 72.6137 8.752C72.5604 8.70933 72.5337 8.65067 72.5337 8.576C72.5337 8.46933 72.5604 8.38933 72.6137 8.336C72.6777 8.28267 72.7631 8.256 72.8697 8.256H77.9417C78.0164 8.256 78.0804 8.272 78.1337 8.304C78.1871 8.336 78.2191 8.37867 78.2297 8.432C78.2511 8.47467 78.2511 8.53333 78.2297 8.608C78.2084 8.672 78.1657 8.74133 78.1017 8.816L72.2137 15.648L72.1657 15.44H77.0457C77.2484 15.44 77.3497 15.5147 77.3497 15.664C77.3497 15.7707 77.3177 15.856 77.2537 15.92C77.2004 15.9733 77.1204 16 77.0137 16H71.7657ZM79.0966 12.064C78.9899 12.064 78.9153 12.0427 78.8726 12C78.8299 11.9573 78.8086 11.904 78.8086 11.84C78.8086 11.744 78.8406 11.6587 78.9046 11.584C78.9686 11.4987 79.0646 11.456 79.1926 11.456H82.9686C83.0753 11.456 83.1499 11.4773 83.1926 11.52C83.2353 11.5627 83.2566 11.616 83.2566 11.68C83.2566 11.776 83.2246 11.8667 83.1606 11.952C83.0966 12.0267 83.0006 12.064 82.8726 12.064H79.0966ZM87.3924 16.096C87.2644 16.096 87.163 16.064 87.0884 16C87.0244 15.9253 86.971 15.8187 86.9284 15.68L85.0564 8.688C85.035 8.58133 85.0297 8.49067 85.0404 8.416C85.0617 8.34133 85.099 8.28267 85.1524 8.24C85.2164 8.18667 85.2964 8.16 85.3924 8.16C85.4884 8.16 85.5577 8.18667 85.6004 8.24C85.6537 8.28267 85.6964 8.36267 85.7284 8.48L87.5844 15.76H87.2004L91.4244 8.416C91.4777 8.33067 91.531 8.26667 91.5844 8.224C91.6377 8.18133 91.707 8.16 91.7924 8.16C91.8884 8.16 91.963 8.18667 92.0164 8.24C92.0804 8.29333 92.1124 8.36267 92.1124 8.448C92.123 8.52267 92.0964 8.61333 92.0324 8.72L87.9204 15.76C87.8564 15.8667 87.787 15.9467 87.7124 16C87.6377 16.064 87.531 16.096 87.3924 16.096ZM95.8887 16.128C95.2594 16.128 94.7101 15.9947 94.2407 15.728C93.7714 15.4613 93.4087 15.0827 93.1527 14.592C92.9074 14.0907 92.7847 13.4933 92.7847 12.8C92.7847 12.1813 92.8647 11.5947 93.0247 11.04C93.1954 10.4747 93.4461 9.97333 93.7767 9.536C94.1074 9.09867 94.5127 8.75733 94.9927 8.512C95.4727 8.256 96.0274 8.128 96.6567 8.128C97.2967 8.128 97.8461 8.26133 98.3047 8.528C98.7741 8.79467 99.1314 9.17867 99.3767 9.68C99.6327 10.1707 99.7607 10.7627 99.7607 11.456C99.7607 12.0747 99.6754 12.6667 99.5047 13.232C99.3447 13.7867 99.0994 14.2827 98.7687 14.72C98.4381 15.1573 98.0327 15.504 97.5527 15.76C97.0727 16.0053 96.5181 16.128 95.8887 16.128ZM95.9207 15.504C96.6034 15.504 97.1794 15.3173 97.6487 14.944C98.1181 14.5707 98.4701 14.0747 98.7047 13.456C98.9501 12.8373 99.0727 12.16 99.0727 11.424C99.0727 10.5387 98.8541 9.872 98.4167 9.424C97.9901 8.976 97.3927 8.752 96.6247 8.752C95.9421 8.752 95.3661 8.93867 94.8967 9.312C94.4274 9.68533 94.0701 10.1813 93.8247 10.8C93.5901 11.408 93.4727 12.0853 93.4727 12.832C93.4727 13.7067 93.6861 14.3733 94.1127 14.832C94.5501 15.28 95.1527 15.504 95.9207 15.504ZM104.082 16.128C103.527 16.128 103.058 16.016 102.674 15.792C102.29 15.5573 102.018 15.2107 101.858 14.752C101.698 14.2827 101.671 13.6907 101.778 12.976L102.482 8.496C102.503 8.37867 102.546 8.29333 102.61 8.24C102.674 8.18667 102.759 8.16 102.866 8.16C102.973 8.16 103.053 8.19733 103.106 8.272C103.159 8.336 103.175 8.432 103.154 8.56L102.45 12.992C102.311 13.8347 102.381 14.464 102.658 14.88C102.946 15.296 103.426 15.504 104.098 15.504C104.983 15.504 105.687 15.2267 106.21 14.672C106.733 14.1173 107.063 13.3867 107.202 12.48L107.826 8.496C107.847 8.37867 107.89 8.29333 107.954 8.24C108.018 8.18667 108.103 8.16 108.21 8.16C108.317 8.16 108.397 8.192 108.45 8.256C108.503 8.30933 108.519 8.39467 108.498 8.512L107.346 15.76C107.314 15.984 107.191 16.096 106.978 16.096C106.871 16.096 106.791 16.064 106.738 16C106.695 15.9253 106.685 15.824 106.706 15.696L106.962 14.08H107.138C106.893 14.72 106.503 15.2213 105.97 15.584C105.437 15.9467 104.807 16.128 104.082 16.128ZM112.817 16.128C112.294 16.128 111.804 16.0587 111.345 15.92C110.897 15.7813 110.513 15.5947 110.193 15.36C110.118 15.3067 110.07 15.2427 110.049 15.168C110.028 15.0933 110.022 15.024 110.033 14.96C110.054 14.896 110.092 14.8427 110.145 14.8C110.198 14.7573 110.262 14.7413 110.337 14.752C110.412 14.752 110.497 14.784 110.593 14.848C110.924 15.0827 111.276 15.2533 111.649 15.36C112.033 15.456 112.438 15.504 112.865 15.504C113.505 15.504 114.012 15.3707 114.385 15.104C114.769 14.8373 114.961 14.4533 114.961 13.952C114.961 13.632 114.854 13.3653 114.641 13.152C114.438 12.9387 114.15 12.784 113.777 12.688L112.225 12.272C111.745 12.144 111.361 11.9147 111.073 11.584C110.785 11.2533 110.641 10.8587 110.641 10.4C110.641 9.952 110.764 9.55733 111.009 9.216C111.254 8.87467 111.596 8.608 112.033 8.416C112.47 8.224 112.972 8.128 113.537 8.128C114.006 8.128 114.454 8.20267 114.881 8.352C115.308 8.50133 115.654 8.69867 115.921 8.944C115.996 9.01867 116.044 9.09333 116.065 9.168C116.097 9.24267 116.102 9.312 116.081 9.376C116.06 9.44 116.022 9.488 115.969 9.52C115.916 9.552 115.852 9.568 115.777 9.568C115.713 9.55733 115.638 9.51467 115.553 9.44C115.286 9.20533 114.982 9.03467 114.641 8.928C114.3 8.81067 113.926 8.752 113.521 8.752C112.87 8.752 112.342 8.90133 111.937 9.2C111.542 9.488 111.345 9.88267 111.345 10.384C111.345 10.6933 111.436 10.96 111.617 11.184C111.809 11.408 112.097 11.5733 112.481 11.68L114.033 12.096C114.534 12.2347 114.929 12.4533 115.217 12.752C115.516 13.0507 115.665 13.4347 115.665 13.904C115.665 14.5867 115.404 15.1307 114.881 15.536C114.358 15.9307 113.67 16.128 112.817 16.128ZM124.796 16.128C124.081 16.128 123.489 15.9893 123.02 15.712C122.561 15.424 122.22 15.0293 121.996 14.528C121.772 14.016 121.66 13.4293 121.66 12.768C121.66 12.2027 121.735 11.648 121.884 11.104C122.033 10.5493 122.263 10.048 122.572 9.6C122.892 9.152 123.297 8.79467 123.788 8.528C124.289 8.26133 124.887 8.128 125.58 8.128C125.996 8.128 126.396 8.192 126.78 8.32C127.175 8.448 127.505 8.61867 127.772 8.832C127.868 8.90667 127.937 8.98667 127.98 9.072C128.023 9.15733 128.039 9.23733 128.028 9.312C128.017 9.38667 127.985 9.44533 127.932 9.488C127.889 9.53067 127.836 9.552 127.772 9.552C127.708 9.54133 127.633 9.504 127.548 9.44C127.26 9.19467 126.951 9.01867 126.62 8.912C126.3 8.80533 125.943 8.752 125.548 8.752C124.983 8.752 124.497 8.86933 124.092 9.104C123.687 9.328 123.356 9.63733 123.1 10.032C122.844 10.416 122.652 10.848 122.524 11.328C122.407 11.7973 122.348 12.2773 122.348 12.768C122.348 13.6 122.54 14.2667 122.924 14.768C123.319 15.2587 123.953 15.504 124.828 15.504C125.127 15.504 125.436 15.456 125.756 15.36C126.087 15.2533 126.396 15.088 126.684 14.864C126.759 14.8 126.833 14.768 126.908 14.768C126.983 14.768 127.041 14.7893 127.084 14.832C127.137 14.864 127.175 14.912 127.196 14.976C127.217 15.04 127.217 15.1093 127.196 15.184C127.175 15.248 127.132 15.3067 127.068 15.36C126.769 15.6053 126.412 15.7973 125.996 15.936C125.591 16.064 125.191 16.128 124.796 16.128ZM131.873 16.128C131.244 16.128 130.694 15.9947 130.225 15.728C129.756 15.4613 129.393 15.0827 129.137 14.592C128.892 14.0907 128.769 13.4933 128.769 12.8C128.769 12.1813 128.849 11.5947 129.009 11.04C129.18 10.4747 129.43 9.97333 129.761 9.536C130.092 9.09867 130.497 8.75733 130.977 8.512C131.457 8.256 132.012 8.128 132.641 8.128C133.281 8.128 133.83 8.26133 134.289 8.528C134.758 8.79467 135.116 9.17867 135.361 9.68C135.617 10.1707 135.745 10.7627 135.745 11.456C135.745 12.0747 135.66 12.6667 135.489 13.232C135.329 13.7867 135.084 14.2827 134.753 14.72C134.422 15.1573 134.017 15.504 133.537 15.76C133.057 16.0053 132.502 16.128 131.873 16.128ZM131.905 15.504C132.588 15.504 133.164 15.3173 133.633 14.944C134.102 14.5707 134.454 14.0747 134.689 13.456C134.934 12.8373 135.057 12.16 135.057 11.424C135.057 10.5387 134.838 9.872 134.401 9.424C133.974 8.976 133.377 8.752 132.609 8.752C131.926 8.752 131.35 8.93867 130.881 9.312C130.412 9.68533 130.054 10.1813 129.809 10.8C129.574 11.408 129.457 12.0853 129.457 12.832C129.457 13.7067 129.67 14.3733 130.097 14.832C130.534 15.28 131.137 15.504 131.905 15.504ZM137.666 16.096C137.56 16.096 137.48 16.064 137.426 16C137.384 15.9253 137.373 15.824 137.394 15.696L138.53 8.496C138.552 8.37867 138.594 8.29333 138.658 8.24C138.722 8.18667 138.808 8.16 138.914 8.16C139.01 8.16 139.08 8.19733 139.122 8.272C139.176 8.34667 139.192 8.44267 139.17 8.56L138.914 10.192L138.754 10.176C139.032 9.52533 139.41 9.024 139.89 8.672C140.37 8.30933 140.936 8.128 141.586 8.128C142.216 8.128 142.728 8.304 143.122 8.656C143.517 9.008 143.741 9.52 143.794 10.192L143.602 10.176C143.848 9.54667 144.221 9.05067 144.722 8.688C145.234 8.31467 145.848 8.128 146.562 8.128C147.106 8.128 147.56 8.24533 147.922 8.48C148.285 8.704 148.541 9.05067 148.69 9.52C148.84 9.97867 148.856 10.5653 148.738 11.28L148.034 15.76C148.024 15.8667 147.981 15.9467 147.906 16C147.842 16.064 147.752 16.096 147.634 16.096C147.528 16.096 147.453 16.064 147.41 16C147.368 15.9253 147.352 15.824 147.362 15.696L148.066 11.184C148.194 10.3627 148.13 9.75467 147.874 9.36C147.629 8.95467 147.181 8.752 146.53 8.752C145.773 8.752 145.144 9.01867 144.642 9.552C144.141 10.0853 143.816 10.8267 143.666 11.776L143.042 15.76C143.032 15.8667 142.989 15.9467 142.914 16C142.85 16.064 142.76 16.096 142.642 16.096C142.536 16.096 142.456 16.064 142.402 16C142.36 15.9253 142.349 15.824 142.37 15.696L143.09 11.184C143.218 10.3627 143.154 9.75467 142.898 9.36C142.653 8.95467 142.205 8.752 141.554 8.752C140.797 8.752 140.168 9.01867 139.666 9.552C139.165 10.0853 138.84 10.8267 138.69 11.776L138.066 15.76C138.034 15.984 137.901 16.096 137.666 16.096ZM151.073 16.096C150.966 16.096 150.886 16.064 150.833 16C150.79 15.9253 150.779 15.824 150.801 15.696L151.937 8.496C151.958 8.37867 152.001 8.29333 152.065 8.24C152.129 8.18667 152.214 8.16 152.321 8.16C152.417 8.16 152.486 8.19733 152.529 8.272C152.582 8.34667 152.598 8.44267 152.577 8.56L152.321 10.192L152.161 10.176C152.438 9.52533 152.817 9.024 153.297 8.672C153.777 8.30933 154.342 8.128 154.993 8.128C155.622 8.128 156.134 8.304 156.529 8.656C156.923 9.008 157.147 9.52 157.201 10.192L157.009 10.176C157.254 9.54667 157.627 9.05067 158.129 8.688C158.641 8.31467 159.254 8.128 159.969 8.128C160.513 8.128 160.966 8.24533 161.329 8.48C161.691 8.704 161.947 9.05067 162.097 9.52C162.246 9.97867 162.262 10.5653 162.145 11.28L161.441 15.76C161.43 15.8667 161.387 15.9467 161.313 16C161.249 16.064 161.158 16.096 161.041 16.096C160.934 16.096 160.859 16.064 160.817 16C160.774 15.9253 160.758 15.824 160.769 15.696L161.473 11.184C161.601 10.3627 161.537 9.75467 161.281 9.36C161.035 8.95467 160.587 8.752 159.937 8.752C159.179 8.752 158.55 9.01867 158.049 9.552C157.547 10.0853 157.222 10.8267 157.073 11.776L156.449 15.76C156.438 15.8667 156.395 15.9467 156.321 16C156.257 16.064 156.166 16.096 156.049 16.096C155.942 16.096 155.862 16.064 155.809 16C155.766 15.9253 155.755 15.824 155.777 15.696L156.497 11.184C156.625 10.3627 156.561 9.75467 156.305 9.36C156.059 8.95467 155.611 8.752 154.961 8.752C154.203 8.752 153.574 9.01867 153.073 9.552C152.571 10.0853 152.246 10.8267 152.097 11.776L151.473 15.76C151.441 15.984 151.307 16.096 151.073 16.096ZM167.551 16.128C166.858 16.128 166.255 15.9947 165.743 15.728C165.242 15.4613 164.858 15.0827 164.591 14.592C164.324 14.0907 164.191 13.4933 164.191 12.8C164.191 11.9787 164.346 11.216 164.655 10.512C164.964 9.79733 165.418 9.22133 166.015 8.784C166.612 8.34667 167.338 8.128 168.191 8.128C168.767 8.128 169.247 8.23467 169.631 8.448C170.026 8.65067 170.335 8.928 170.559 9.28C170.794 9.632 170.943 10.032 171.007 10.48C171.082 10.928 171.087 11.3867 171.023 11.856C171.002 12.0053 170.964 12.112 170.911 12.176C170.858 12.2293 170.762 12.256 170.623 12.256H164.655L164.751 11.664H170.703L170.399 11.856C170.484 11.28 170.463 10.7573 170.335 10.288C170.218 9.81867 169.983 9.44533 169.631 9.168C169.29 8.88 168.804 8.736 168.175 8.736C167.503 8.736 166.943 8.89067 166.495 9.2C166.058 9.49867 165.716 9.88267 165.471 10.352C165.226 10.8107 165.06 11.2853 164.975 11.776L164.927 12.064C164.756 13.088 164.9 13.92 165.359 14.56C165.828 15.1893 166.548 15.504 167.519 15.504C167.967 15.504 168.378 15.4507 168.751 15.344C169.124 15.2267 169.492 15.0347 169.855 14.768C169.951 14.6933 170.036 14.656 170.111 14.656C170.186 14.6453 170.25 14.6613 170.303 14.704C170.356 14.736 170.388 14.784 170.399 14.848C170.42 14.912 170.415 14.9867 170.383 15.072C170.351 15.1467 170.292 15.216 170.207 15.28C169.855 15.5467 169.439 15.7547 168.959 15.904C168.49 16.0533 168.02 16.128 167.551 16.128ZM176.295 18.976C176.189 18.976 176.109 18.9387 176.055 18.864C176.013 18.8 176.002 18.704 176.023 18.576L177.623 8.496C177.645 8.37867 177.687 8.29333 177.751 8.24C177.815 8.18667 177.901 8.16 178.007 8.16C178.114 8.16 178.189 8.19733 178.231 8.272C178.285 8.336 178.301 8.432 178.279 8.56L178.039 10.064H177.863C178.141 9.46667 178.541 8.99733 179.063 8.656C179.586 8.304 180.205 8.128 180.919 8.128C181.527 8.128 182.061 8.26133 182.519 8.528C182.978 8.79467 183.33 9.17333 183.575 9.664C183.831 10.1547 183.959 10.7413 183.959 11.424C183.959 12.256 183.81 13.0293 183.511 13.744C183.223 14.4587 182.791 15.0347 182.215 15.472C181.639 15.9093 180.93 16.128 180.087 16.128C179.437 16.128 178.855 15.9627 178.343 15.632C177.831 15.2907 177.485 14.7627 177.303 14.048H177.415L176.679 18.64C176.669 18.7467 176.631 18.8267 176.567 18.88C176.503 18.944 176.413 18.976 176.295 18.976ZM180.119 15.504C180.802 15.504 181.378 15.3173 181.847 14.944C182.317 14.5707 182.669 14.0747 182.903 13.456C183.149 12.8373 183.271 12.16 183.271 11.424C183.271 10.5387 183.053 9.872 182.615 9.424C182.189 8.976 181.591 8.752 180.823 8.752C180.141 8.752 179.565 8.93867 179.095 9.312C178.626 9.68533 178.269 10.1813 178.023 10.8C177.789 11.408 177.671 12.0853 177.671 12.832C177.671 13.7067 177.885 14.3733 178.311 14.832C178.749 15.28 179.351 15.504 180.119 15.504ZM185.869 16.096C185.763 16.096 185.683 16.064 185.629 16C185.587 15.9253 185.576 15.824 185.597 15.696L186.733 8.496C186.755 8.37867 186.797 8.29333 186.861 8.24C186.925 8.18667 187.011 8.16 187.117 8.16C187.213 8.16 187.288 8.19733 187.341 8.272C187.395 8.336 187.411 8.432 187.389 8.56L187.149 10.08H186.973C187.197 9.44 187.587 8.94933 188.141 8.608C188.707 8.26667 189.315 8.096 189.965 8.096C190.147 8.096 190.269 8.11733 190.333 8.16C190.408 8.192 190.445 8.26133 190.445 8.368C190.445 8.47467 190.419 8.55467 190.365 8.608C190.312 8.65067 190.211 8.68267 190.061 8.704L189.869 8.72C188.899 8.79467 188.195 9.08267 187.757 9.584C187.331 10.0853 187.053 10.7307 186.925 11.52L186.253 15.76C186.243 15.8667 186.205 15.9467 186.141 16C186.077 16.064 185.987 16.096 185.869 16.096ZM193.857 16.128C193.228 16.128 192.679 15.9947 192.209 15.728C191.74 15.4613 191.377 15.0827 191.121 14.592C190.876 14.0907 190.753 13.4933 190.753 12.8C190.753 12.1813 190.833 11.5947 190.993 11.04C191.164 10.4747 191.415 9.97333 191.745 9.536C192.076 9.09867 192.481 8.75733 192.961 8.512C193.441 8.256 193.996 8.128 194.625 8.128C195.265 8.128 195.815 8.26133 196.273 8.528C196.743 8.79467 197.1 9.17867 197.345 9.68C197.601 10.1707 197.729 10.7627 197.729 11.456C197.729 12.0747 197.644 12.6667 197.473 13.232C197.313 13.7867 197.068 14.2827 196.737 14.72C196.407 15.1573 196.001 15.504 195.521 15.76C195.041 16.0053 194.487 16.128 193.857 16.128ZM193.889 15.504C194.572 15.504 195.148 15.3173 195.617 14.944C196.087 14.5707 196.439 14.0747 196.673 13.456C196.919 12.8373 197.041 12.16 197.041 11.424C197.041 10.5387 196.823 9.872 196.385 9.424C195.959 8.976 195.361 8.752 194.593 8.752C193.911 8.752 193.335 8.93867 192.865 9.312C192.396 9.68533 192.039 10.1813 191.793 10.8C191.559 11.408 191.441 12.0853 191.441 12.832C191.441 13.7067 191.655 14.3733 192.081 14.832C192.519 15.28 193.121 15.504 193.889 15.504ZM202.515 16.128C201.8 16.128 201.208 15.9893 200.739 15.712C200.28 15.424 199.939 15.0293 199.715 14.528C199.491 14.016 199.379 13.4293 199.379 12.768C199.379 12.2027 199.454 11.648 199.603 11.104C199.752 10.5493 199.982 10.048 200.291 9.6C200.611 9.152 201.016 8.79467 201.507 8.528C202.008 8.26133 202.606 8.128 203.299 8.128C203.715 8.128 204.115 8.192 204.499 8.32C204.894 8.448 205.224 8.61867 205.491 8.832C205.587 8.90667 205.656 8.98667 205.699 9.072C205.742 9.15733 205.758 9.23733 205.747 9.312C205.736 9.38667 205.704 9.44533 205.651 9.488C205.608 9.53067 205.555 9.552 205.491 9.552C205.427 9.54133 205.352 9.504 205.267 9.44C204.979 9.19467 204.67 9.01867 204.339 8.912C204.019 8.80533 203.662 8.752 203.267 8.752C202.702 8.752 202.216 8.86933 201.811 9.104C201.406 9.328 201.075 9.63733 200.819 10.032C200.563 10.416 200.371 10.848 200.243 11.328C200.126 11.7973 200.067 12.2773 200.067 12.768C200.067 13.6 200.259 14.2667 200.643 14.768C201.038 15.2587 201.672 15.504 202.547 15.504C202.846 15.504 203.155 15.456 203.475 15.36C203.806 15.2533 204.115 15.088 204.403 14.864C204.478 14.8 204.552 14.768 204.627 14.768C204.702 14.768 204.76 14.7893 204.803 14.832C204.856 14.864 204.894 14.912 204.915 14.976C204.936 15.04 204.936 15.1093 204.915 15.184C204.894 15.248 204.851 15.3067 204.787 15.36C204.488 15.6053 204.131 15.7973 203.715 15.936C203.31 16.064 202.91 16.128 202.515 16.128ZM206.9 16.096C206.793 16.096 206.713 16.064 206.66 16C206.617 15.9253 206.607 15.824 206.628 15.696L208.324 4.96C208.345 4.84267 208.388 4.75733 208.452 4.704C208.516 4.65067 208.601 4.624 208.708 4.624C208.815 4.624 208.889 4.66133 208.932 4.736C208.985 4.8 209.001 4.896 208.98 5.024L208.164 10.176H207.988C208.255 9.536 208.655 9.03467 209.188 8.672C209.721 8.30933 210.367 8.128 211.124 8.128C211.7 8.128 212.18 8.24533 212.564 8.48C212.959 8.704 213.236 9.05067 213.396 9.52C213.567 9.97867 213.593 10.5653 213.476 11.28L212.772 15.76C212.761 15.8667 212.719 15.9467 212.644 16C212.58 16.064 212.489 16.096 212.372 16.096C212.265 16.096 212.185 16.064 212.132 16C212.089 15.9253 212.079 15.824 212.1 15.696L212.804 11.264C212.943 10.4107 212.868 9.78133 212.58 9.376C212.292 8.96 211.801 8.752 211.108 8.752C210.191 8.752 209.465 9.02933 208.932 9.584C208.409 10.128 208.073 10.8587 207.924 11.776L207.3 15.76C207.268 15.984 207.135 16.096 206.9 16.096ZM217.952 16.128C217.525 16.128 217.12 16.0373 216.736 15.856C216.352 15.664 216.043 15.3973 215.808 15.056C215.573 14.7147 215.456 14.3147 215.456 13.856C215.456 13.312 215.605 12.8747 215.904 12.544C216.213 12.2133 216.693 11.9733 217.344 11.824C217.995 11.6747 218.832 11.6 219.856 11.6H221.152L221.056 12.192H220.112C219.12 12.192 218.341 12.2453 217.776 12.352C217.211 12.448 216.805 12.6187 216.56 12.864C216.325 13.0987 216.208 13.4187 216.208 13.824C216.208 14.3787 216.389 14.8 216.752 15.088C217.125 15.376 217.541 15.52 218 15.52C218.427 15.52 218.832 15.4187 219.216 15.216C219.611 15.0133 219.947 14.72 220.224 14.336C220.501 13.952 220.683 13.488 220.768 12.944L221.088 10.96C221.205 10.2347 221.12 9.68533 220.832 9.312C220.555 8.93867 220.043 8.752 219.296 8.752C218.869 8.752 218.464 8.79467 218.08 8.88C217.707 8.96533 217.349 9.13067 217.008 9.376C216.923 9.44 216.837 9.472 216.752 9.472C216.677 9.472 216.613 9.45067 216.56 9.408C216.507 9.36533 216.475 9.312 216.464 9.248C216.453 9.184 216.464 9.11467 216.496 9.04C216.528 8.96533 216.592 8.896 216.688 8.832C217.061 8.58667 217.477 8.41067 217.936 8.304C218.395 8.18667 218.859 8.128 219.328 8.128C219.957 8.128 220.464 8.25067 220.848 8.496C221.243 8.73067 221.515 9.07733 221.664 9.536C221.813 9.984 221.835 10.528 221.728 11.168L220.992 15.76C220.981 15.8667 220.944 15.9467 220.88 16C220.816 16.064 220.731 16.096 220.624 16.096C220.517 16.096 220.443 16.0587 220.4 15.984C220.357 15.9093 220.341 15.8133 220.352 15.696L220.592 14.144H220.752C220.613 14.592 220.395 14.9653 220.096 15.264C219.808 15.552 219.472 15.7707 219.088 15.92C218.715 16.0587 218.336 16.128 217.952 16.128ZM223.963 16.096C223.856 16.096 223.776 16.064 223.723 16C223.68 15.9253 223.669 15.824 223.691 15.696L224.827 8.496C224.848 8.37867 224.891 8.29333 224.955 8.24C225.019 8.18667 225.104 8.16 225.211 8.16C225.317 8.16 225.392 8.19733 225.435 8.272C225.488 8.336 225.504 8.432 225.483 8.56L224.347 15.76C224.336 15.8667 224.299 15.9467 224.235 16C224.171 16.064 224.08 16.096 223.963 16.096ZM225.563 6.144C225.413 6.144 225.296 6.10667 225.211 6.032C225.125 5.94667 225.083 5.83467 225.083 5.696C225.083 5.48267 225.141 5.32267 225.259 5.216C225.376 5.09867 225.536 5.04 225.739 5.04C225.888 5.04 226.005 5.07733 226.091 5.152C226.176 5.22667 226.219 5.33867 226.219 5.488C226.219 5.69067 226.16 5.85067 226.043 5.968C225.925 6.08533 225.765 6.144 225.563 6.144ZM227.369 16.096C227.263 16.096 227.183 16.0587 227.129 15.984C227.087 15.8987 227.076 15.792 227.097 15.664L228.233 8.496C228.255 8.37867 228.297 8.29333 228.361 8.24C228.425 8.18667 228.511 8.16 228.617 8.16C228.713 8.16 228.783 8.19733 228.825 8.272C228.879 8.336 228.895 8.432 228.873 8.56L228.617 10.176H228.441C228.708 9.536 229.108 9.03467 229.641 8.672C230.175 8.30933 230.82 8.128 231.577 8.128C232.153 8.128 232.633 8.24533 233.017 8.48C233.412 8.704 233.689 9.05067 233.849 9.52C234.02 9.97867 234.047 10.5653 233.929 11.28L233.209 15.792C233.199 15.888 233.161 15.9627 233.097 16.016C233.033 16.0693 232.943 16.096 232.825 16.096C232.719 16.096 232.639 16.064 232.585 16C232.543 15.9253 232.532 15.824 232.553 15.696L233.257 11.264C233.396 10.4107 233.321 9.78133 233.033 9.376C232.745 8.96 232.255 8.752 231.561 8.752C230.644 8.752 229.919 9.02933 229.385 9.584C228.863 10.128 228.527 10.8587 228.377 11.776L227.753 15.76C227.721 15.984 227.593 16.096 227.369 16.096ZM238.645 16.128C238.122 16.128 237.632 16.0587 237.173 15.92C236.725 15.7813 236.341 15.5947 236.021 15.36C235.946 15.3067 235.898 15.2427 235.877 15.168C235.856 15.0933 235.85 15.024 235.861 14.96C235.882 14.896 235.92 14.8427 235.973 14.8C236.026 14.7573 236.09 14.7413 236.165 14.752C236.24 14.752 236.325 14.784 236.421 14.848C236.752 15.0827 237.104 15.2533 237.477 15.36C237.861 15.456 238.266 15.504 238.693 15.504C239.333 15.504 239.84 15.3707 240.213 15.104C240.597 14.8373 240.789 14.4533 240.789 13.952C240.789 13.632 240.682 13.3653 240.469 13.152C240.266 12.9387 239.978 12.784 239.605 12.688L238.053 12.272C237.573 12.144 237.189 11.9147 236.901 11.584C236.613 11.2533 236.469 10.8587 236.469 10.4C236.469 9.952 236.592 9.55733 236.837 9.216C237.082 8.87467 237.424 8.608 237.861 8.416C238.298 8.224 238.8 8.128 239.365 8.128C239.834 8.128 240.282 8.20267 240.709 8.352C241.136 8.50133 241.482 8.69867 241.749 8.944C241.824 9.01867 241.872 9.09333 241.893 9.168C241.925 9.24267 241.93 9.312 241.909 9.376C241.888 9.44 241.85 9.488 241.797 9.52C241.744 9.552 241.68 9.568 241.605 9.568C241.541 9.55733 241.466 9.51467 241.381 9.44C241.114 9.20533 240.81 9.03467 240.469 8.928C240.128 8.81067 239.754 8.752 239.349 8.752C238.698 8.752 238.17 8.90133 237.765 9.2C237.37 9.488 237.173 9.88267 237.173 10.384C237.173 10.6933 237.264 10.96 237.445 11.184C237.637 11.408 237.925 11.5733 238.309 11.68L239.861 12.096C240.362 12.2347 240.757 12.4533 241.045 12.752C241.344 13.0507 241.493 13.4347 241.493 13.904C241.493 14.5867 241.232 15.1307 240.709 15.536C240.186 15.9307 239.498 16.128 238.645 16.128ZM249.488 16.128C248.827 16.128 248.342 15.9253 248.032 15.52C247.723 15.1147 247.632 14.512 247.76 13.712L249.152 4.96C249.174 4.84267 249.216 4.75733 249.28 4.704C249.344 4.65067 249.43 4.624 249.536 4.624C249.643 4.624 249.718 4.66133 249.76 4.736C249.814 4.8 249.83 4.896 249.808 5.024L248.432 13.712C248.326 14.3627 248.368 14.8267 248.56 15.104C248.763 15.3707 249.115 15.504 249.616 15.504C249.787 15.504 249.915 15.4933 250 15.472C250.096 15.4507 250.166 15.44 250.208 15.44C250.262 15.44 250.304 15.456 250.336 15.488C250.368 15.52 250.384 15.584 250.384 15.68C250.384 15.7867 250.347 15.8773 250.272 15.952C250.208 16.016 250.118 16.0587 250 16.08C249.926 16.0907 249.835 16.1013 249.728 16.112C249.632 16.1227 249.552 16.128 249.488 16.128ZM254.904 16.128C254.275 16.128 253.726 15.9947 253.256 15.728C252.787 15.4613 252.424 15.0827 252.168 14.592C251.923 14.0907 251.8 13.4933 251.8 12.8C251.8 12.1813 251.88 11.5947 252.04 11.04C252.211 10.4747 252.462 9.97333 252.792 9.536C253.123 9.09867 253.528 8.75733 254.008 8.512C254.488 8.256 255.043 8.128 255.672 8.128C256.312 8.128 256.862 8.26133 257.32 8.528C257.79 8.79467 258.147 9.17867 258.392 9.68C258.648 10.1707 258.776 10.7627 258.776 11.456C258.776 12.0747 258.691 12.6667 258.52 13.232C258.36 13.7867 258.115 14.2827 257.784 14.72C257.454 15.1573 257.048 15.504 256.568 15.76C256.088 16.0053 255.534 16.128 254.904 16.128ZM254.936 15.504C255.619 15.504 256.195 15.3173 256.664 14.944C257.134 14.5707 257.486 14.0747 257.72 13.456C257.966 12.8373 258.088 12.16 258.088 11.424C258.088 10.5387 257.87 9.872 257.432 9.424C257.006 8.976 256.408 8.752 255.64 8.752C254.958 8.752 254.382 8.93867 253.912 9.312C253.443 9.68533 253.086 10.1813 252.84 10.8C252.606 11.408 252.488 12.0853 252.488 12.832C252.488 13.7067 252.702 14.3733 253.128 14.832C253.566 15.28 254.168 15.504 254.936 15.504ZM263.036 16.128C262.513 16.128 262.081 16.0267 261.74 15.824C261.398 15.6107 261.158 15.312 261.02 14.928C260.881 14.544 260.854 14.0853 260.94 13.552L261.692 8.832H260.444C260.337 8.832 260.252 8.81067 260.188 8.768C260.124 8.72533 260.092 8.66667 260.092 8.592C260.092 8.47467 260.129 8.38933 260.204 8.336C260.278 8.28267 260.369 8.256 260.476 8.256H261.772L262.124 6.08C262.145 5.96267 262.188 5.87733 262.252 5.824C262.316 5.77067 262.401 5.744 262.508 5.744C262.614 5.744 262.689 5.78133 262.732 5.856C262.785 5.92 262.801 6.016 262.78 6.144L262.444 8.256H264.684C264.801 8.256 264.886 8.27733 264.94 8.32C265.004 8.352 265.036 8.41067 265.036 8.496C265.036 8.60267 264.998 8.688 264.924 8.752C264.86 8.80533 264.769 8.832 264.652 8.832H262.348L261.628 13.408C261.51 14.1547 261.574 14.6933 261.82 15.024C262.076 15.344 262.497 15.504 263.084 15.504C263.34 15.504 263.537 15.4827 263.676 15.44C263.814 15.3867 263.921 15.36 263.996 15.36C264.06 15.36 264.108 15.3813 264.14 15.424C264.182 15.456 264.204 15.5147 264.204 15.6C264.204 15.696 264.188 15.776 264.156 15.84C264.134 15.8933 264.081 15.936 263.996 15.968C263.889 16.0107 263.74 16.048 263.548 16.08C263.366 16.112 263.196 16.128 263.036 16.128ZM268.161 16.128C267.638 16.128 267.147 16.0587 266.689 15.92C266.241 15.7813 265.857 15.5947 265.537 15.36C265.462 15.3067 265.414 15.2427 265.393 15.168C265.371 15.0933 265.366 15.024 265.377 14.96C265.398 14.896 265.435 14.8427 265.489 14.8C265.542 14.7573 265.606 14.7413 265.681 14.752C265.755 14.752 265.841 14.784 265.937 14.848C266.267 15.0827 266.619 15.2533 266.993 15.36C267.377 15.456 267.782 15.504 268.209 15.504C268.849 15.504 269.355 15.3707 269.729 15.104C270.113 14.8373 270.305 14.4533 270.305 13.952C270.305 13.632 270.198 13.3653 269.985 13.152C269.782 12.9387 269.494 12.784 269.121 12.688L267.569 12.272C267.089 12.144 266.705 11.9147 266.417 11.584C266.129 11.2533 265.985 10.8587 265.985 10.4C265.985 9.952 266.107 9.55733 266.353 9.216C266.598 8.87467 266.939 8.608 267.377 8.416C267.814 8.224 268.315 8.128 268.881 8.128C269.35 8.128 269.798 8.20267 270.225 8.352C270.651 8.50133 270.998 8.69867 271.265 8.944C271.339 9.01867 271.387 9.09333 271.409 9.168C271.441 9.24267 271.446 9.312 271.425 9.376C271.403 9.44 271.366 9.488 271.313 9.52C271.259 9.552 271.195 9.568 271.121 9.568C271.057 9.55733 270.982 9.51467 270.897 9.44C270.63 9.20533 270.326 9.03467 269.985 8.928C269.643 8.81067 269.27 8.752 268.865 8.752C268.214 8.752 267.686 8.90133 267.281 9.2C266.886 9.488 266.689 9.88267 266.689 10.384C266.689 10.6933 266.779 10.96 266.961 11.184C267.153 11.408 267.441 11.5733 267.825 11.68L269.377 12.096C269.878 12.2347 270.273 12.4533 270.561 12.752C270.859 13.0507 271.009 13.4347 271.009 13.904C271.009 14.5867 270.747 15.1307 270.225 15.536C269.702 15.9307 269.014 16.128 268.161 16.128ZM275.006 13.456C274.91 13.456 274.846 13.424 274.814 13.36C274.782 13.2853 274.771 13.1947 274.782 13.088C274.835 12.6827 274.921 12.3093 275.038 11.968C275.155 11.616 275.347 11.264 275.614 10.912C275.881 10.5493 276.254 10.1547 276.734 9.728C277.182 9.33333 277.534 8.98667 277.79 8.688C278.057 8.38933 278.243 8.10133 278.35 7.824C278.467 7.536 278.526 7.232 278.526 6.912C278.526 6.44267 278.371 6.048 278.062 5.728C277.763 5.408 277.283 5.248 276.622 5.248C276.089 5.248 275.577 5.344 275.086 5.536C274.606 5.728 274.163 6 273.758 6.352C273.673 6.42667 273.587 6.46933 273.502 6.48C273.427 6.49067 273.363 6.48 273.31 6.448C273.257 6.40533 273.219 6.352 273.198 6.288C273.177 6.224 273.177 6.15467 273.198 6.08C273.219 5.99467 273.273 5.91467 273.358 5.84C273.795 5.43467 274.307 5.12533 274.894 4.912C275.481 4.69867 276.057 4.592 276.622 4.592C277.198 4.592 277.678 4.69867 278.062 4.912C278.457 5.11467 278.75 5.392 278.942 5.744C279.134 6.08533 279.23 6.464 279.23 6.88C279.23 7.264 279.145 7.64267 278.974 8.016C278.814 8.37867 278.574 8.74133 278.254 9.104C277.945 9.46667 277.566 9.84 277.118 10.224C276.691 10.5973 276.355 10.9493 276.11 11.28C275.865 11.6 275.683 11.9093 275.566 12.208C275.449 12.496 275.358 12.784 275.294 13.072C275.273 13.2 275.241 13.296 275.198 13.36C275.155 13.424 275.091 13.456 275.006 13.456ZM274.654 16.048C274.483 16.048 274.339 15.9893 274.222 15.872C274.105 15.7547 274.046 15.6107 274.046 15.44C274.046 15.2587 274.105 15.1147 274.222 15.008C274.339 14.8907 274.483 14.832 274.654 14.832C274.835 14.832 274.979 14.8907 275.086 15.008C275.193 15.1147 275.246 15.2587 275.246 15.44C275.246 15.6107 275.193 15.7547 275.086 15.872C274.979 15.9893 274.835 16.048 274.654 16.048Z" fill="white"/>
</svg>
